<?xml version="1.0" encoding="UTF-8"?>
<svg width="74px" height="28px" viewBox="0 0 74 28" version="1.1" xmlns="http://www.w3.org/2000/svg" xmlns:xlink="http://www.w3.org/1999/xlink">
    <!-- Generator: Sketch 48.2 (47327) - http://www.bohemiancoding.com/sketch -->
    <title>mieterengel-icon</title>
    <desc>Created with Sketch.</desc>
    <defs>
        <polygon id="path-1" points="7.11538461e-05 1.90212617e-05 73.9626442 1.90212617e-05 73.9626442 27.2463019 7.11538461e-05 27.2463019"></polygon>
    </defs>
    <g id="Symbols" stroke="none" stroke-width="1" fill="none" fill-rule="evenodd">
        <g id="mieterengel-icon">
            <g>
                <mask id="mask-2" fill="white">
                    <use xlink:href="#path-1"></use>
                </mask>
                <g id="Clip-2"></g>
                <path d="M64.4718596,9.50658077 L51.1934846,9.50658077 L51.1934846,12.3527346 L62.9822538,12.3527346 C62.3721096,14.8431192 59.9777827,16.2661962 57.1238019,16.2661962 L44.7896385,16.2661962 L44.7896385,18.7565808 L55.645225,18.7565808 C55.0453981,21.6027346 52.5197923,24.0931192 49.5256385,24.0931192 L42.0388308,24.0931192 C42.0388308,24.0931192 39.2638308,24.1425712 38.0044077,23.5032538 C40.1749558,21.2850327 41.4728019,18.4289173 41.4728019,15.3465327 C41.4728019,12.1787635 40.8761769,9.25007115 38.0300231,7.01050385 L38.0300231,7.00801346 L37.1697731,6.61773462 C38.7138115,5.68455192 40.4321769,5.59311923 42.2910712,5.59311923 L70.3345808,5.59311923 C69.7301288,7.01619615 67.3308212,9.50658077 64.4718596,9.50658077 Z M22.6856962,21.8716962 L3.83526346,3.44640769 C6.02253269,2.15318654 8.91458077,2.43139808 10.8026481,4.27570577 L20.0803981,13.3446192 L21.9528115,11.4298692 L13.7761673,3.43715769 C15.9645038,2.15425385 18.8473019,2.43637885 20.7293212,4.27428269 L30.00885,13.3446192 L31.8809077,11.4298692 L23.6943019,3.42826346 C25.9786962,2.03507115 29.0066481,2.24817692 31.0658404,4.06900385 L35.4225904,8.36100385 L36.0256192,8.98502308 C37.7962827,10.5539654 38.7725135,12.9820904 38.7725135,15.4283596 C38.7725135,17.8735615 37.7962827,20.1376769 36.0256192,21.8716962 C32.3473212,25.4653212 26.3629269,25.4667442 22.6856962,21.8716962 Z M42.2739942,2.74696538 C39.6640712,2.74696538 37.1776,3.16961923 35.0835423,4.65139808 L33.1616769,2.56303269 C30.0230808,-0.501563462 25.0864269,-0.852707692 21.6447154,1.69744615 C18.7032154,-0.430409615 14.6755519,-0.471323077 11.7408115,1.66791731 C8.47556154,-0.710755769 3.83953269,-0.507255769 0.877398077,2.38870577 L7.11538461e-05,3.45565769 L20.8236,23.8003212 C23.1770135,26.0985904 26.2654462,27.2416769 29.3545904,27.2416769 C31.5881096,27.2416769 33.8205615,26.6386481 35.776225,25.4379269 C37.6728308,26.5803019 39.8946096,27.238475 42.2622538,27.2409654 L49.3022154,27.2463019 C53.9275712,27.2463019 57.7627635,23.7992538 58.3736192,19.3396865 C62.1639846,18.7896673 65.5722538,15.7819942 66.12085,11.9891385 C70.32035,11.3832635 73.9627154,7.757975 73.9627154,3.37738846 L73.9627154,2.74696538 L42.2739942,2.74696538 Z" id="Fill-1" fill="#FEFEFE" mask="url(#mask-2)"></path>
            </g>
        </g>
    </g>
</svg>