<svg xmlns="http://www.w3.org/2000/svg" width="84" height="104" viewBox="0 0 84 104">
    <g fill="none" fill-rule="evenodd">
        <path fill="#FFF" d="M51.5 29h4a.5.5 0 0 1 .5.5v4a.5.5 0 0 1-.5.5h-4a.5.5 0 0 1-.5-.5v-4a.5.5 0 0 1 .5-.5"/>
        <path fill="#FFF" d="M55.167 29h-3.334a.834.834 0 0 0-.833.833v3.334c0 .46.373.833.833.833h3.334c.46 0 .833-.373.833-.833v-3.334a.834.834 0 0 0-.833-.833zm-3.334 4.167h3.334v-3.334h-3.334v3.334zM40.5 29h4a.5.5 0 0 1 .5.5v4a.5.5 0 0 1-.5.5h-4a.5.5 0 0 1-.5-.5v-4a.5.5 0 0 1 .5-.5"/>
        <path fill="#FFF" d="M44.167 29h-3.334a.834.834 0 0 0-.833.833v3.334c0 .46.373.833.833.833h3.334c.46 0 .833-.373.833-.833v-3.334a.834.834 0 0 0-.833-.833zm-3.334 4.167h3.334v-3.334h-3.334v3.334zM29.5 29h4a.5.5 0 0 1 .5.5v4a.5.5 0 0 1-.5.5h-4a.5.5 0 0 1-.5-.5v-4a.5.5 0 0 1 .5-.5"/>
        <path fill="#FFF" d="M33.167 29h-3.334a.834.834 0 0 0-.833.833v3.334c0 .46.373.833.833.833h3.334c.46 0 .833-.373.833-.833v-3.334a.834.834 0 0 0-.833-.833zm-3.334 4.167h3.334v-3.334h-3.334v3.334z"/>
        <path fill="#228288" d="M42.01 6.044l33.53 33.57H8.499L42.01 6.044zM12.406 84.082h59.226V44.478H12.406v39.604zM2.544 44.478h4.93v42.054A2.466 2.466 0 0 0 9.94 89h64.103a2.466 2.466 0 0 0 2.466-2.468V44.478h4.93a2.467 2.467 0 0 0 1.827-4.224L43.782.724a2.464 2.464 0 0 0-3.487-.002l-.002.002L.791 40.199a2.468 2.468 0 1 0 1.753 4.279z"/>
        <path fill="#228288" stroke="#228288" d="M59.383 100.272a5.757 5.757 0 0 1-4.714-2.48l-9.937-14.28a1.433 1.433 0 0 0-1.178-.62H41.25l-1.433-1.442 6.6-6.638 1.433 1.44v2.226c0 .472.23.915.617 1.185l14.197 9.995c2.644 1.785 3.35 5.39 1.574 8.048a5.759 5.759 0 0 1-4.856 2.566zM27.67 98.85a5.021 5.021 0 0 1-7.126.199 5.092 5.092 0 0 1 0-7.367L35.72 76.417l2.539 2.553-1.505 1.514a1.446 1.446 0 0 0-.006 2.037l.006.005 2.883 2.9c.252.254.587.403.943.42L27.67 98.85zm-1.106-35.73a1.426 1.426 0 0 0-1.015-.419h-2.792l-3.264-5.635 2.72-2.736 5.53 3.338v2.79c-.002.383.149.75.417 1.021l14.397 14.482-1.56 1.568-14.433-14.408zm16.882 5.472a1.45 1.45 0 0 0 .38-1.35c-1.035-4.612.99-9.37 5.023-11.8a10.732 10.732 0 0 1 9.701-.62l-4.968 2.882c-.45.257-.727.739-.725 1.258V64.8c0 .51.27.981.707 1.24l5.004 2.936a1.425 1.425 0 0 0 1.451 0l4.968-2.881c-.703 5.942-6.063 10.182-11.97 9.475-.37-.044-.739-.108-1.103-.192a8.162 8.162 0 0 1-1.813-.875l-2.757-2.773a1.426 1.426 0 0 0-2.03 0l-1.505 1.514-2.54-2.553 2.177-2.098zm20.87 18.768L51.84 78.569l.218-.22c7.434 1.272 14.484-3.76 15.748-11.238.147-.859.21-1.732.19-2.604a2.019 2.019 0 0 0-2.045-1.992 2.027 2.027 0 0 0-.983.278l-5.62 3.264-3.591-2.17V59.71l5.621-3.264a2.03 2.03 0 0 0 0-3.502 13.606 13.606 0 0 0-14.017 0c-4.84 2.929-7.425 8.524-6.527 14.135l-1.56 1.568-8.74-8.79v-3.028c0-.511-.27-.982-.707-1.24l-7.253-4.341a1.426 1.426 0 0 0-1.813.218l-4.316 4.341a1.447 1.447 0 0 0-.217 1.824l4.315 7.295c.258.44.726.712 1.233.712h3.155l8.74 8.79-15.177 15.266c-2.912 3.287-2.625 8.324.642 11.253a7.887 7.887 0 0 0 10.546 0l13.854-13.934 8.74 12.548c2.879 3.821 8.291 4.573 12.092 1.676 3.799-2.894 4.546-8.34 1.666-12.161a8.635 8.635 0 0 0-1.718-1.716z"/>
        <path fill="#A6DADD" d="M43.202 68.848c.354-.359.5-.877.385-1.369-1.048-4.677 1.002-9.502 5.083-11.965a10.84 10.84 0 0 1 9.816-.629l-5.027 2.922c-.455.261-.736.75-.734 1.276v5.918c0 .518.273.995.715 1.258l5.065 2.977a1.44 1.44 0 0 0 1.467 0L65 66.314c-.712 6.026-6.136 10.325-12.114 9.608-.374-.045-.747-.11-1.115-.194a8.252 8.252 0 0 1-1.835-.888l-2.79-2.811a1.441 1.441 0 0 0-2.049-.006l-.005.006-1.523 1.535L41 70.974l2.202-2.126zM26.052 62.643a1.427 1.427 0 0 0-1.013-.416h-2.784L19 56.712 21.712 54l5.515 3.309v2.766c-.002.38.148.744.416 1.013L42 75.445 40.445 77 26.052 62.643zM27.858 98.416c-1.947 2.032-5.195 2.121-7.253.198a5.022 5.022 0 0 1 0-7.36L36.053 76l2.584 2.551-1.532 1.513A1.426 1.426 0 0 0 37.1 82.1l.005.005 2.935 2.898c.257.253.598.402.96.419L27.858 98.416zM55.201 97.564L45.03 83.542a1.486 1.486 0 0 0-1.206-.609h-2.358L40 81.52 46.756 75l1.466 1.415V78.6c0 .463.236.898.631 1.164l14.534 9.813c2.706 1.753 3.428 5.292 1.61 7.903-1.11 1.594-2.978 2.543-4.97 2.52-1.925-.006-3.725-.914-4.826-2.436z"/>
    </g>
</svg>
