<svg xmlns="http://www.w3.org/2000/svg" xmlns:xlink="http://www.w3.org/1999/xlink" width="95" height="72" viewBox="0 0 95 72">
    <defs>
        <path id="a" d="M.011.401h47.945V58H.01z"/>
    </defs>
    <g fill="none" fill-rule="evenodd">
        <path fill="#238288" d="M96.5 28c1.93 0 3.5-1.57 3.5-3.5S98.43 21 96.5 21 93 22.57 93 24.5s1.57 3.5 3.5 3.5M71.76 16.9a.338.338 0 0 0 .481 0l2.66-2.66a.34.34 0 0 0 0-.481l-2.66-2.66a.342.342 0 0 0-.48 0l-2.66 2.66a.34.34 0 0 0 0 .481l2.66 2.66zM15 42a.34.34 0 0 0-.1-.24l-2.66-2.661a.34.34 0 0 0-.48 0l-2.66 2.66a.34.34 0 0 0 0 .481l2.66 2.66a.338.338 0 0 0 .48 0l2.66-2.66A.34.34 0 0 0 15 42M17.24 44.1a.34.34 0 0 0-.481 0l-2.66 2.66a.34.34 0 0 0 0 .48l2.66 2.66a.344.344 0 0 0 .48 0l2.66-2.66a.34.34 0 0 0 0-.48l-2.66-2.66zM64.91 36.257l-12.567 2.72c-.6.126-1.163-.173-1.538-.783l-4.588-7.6a1.457 1.457 0 0 0-.979-.68c-.41-.08-.828.02-1.159.27l-8.063 5.85a1.465 1.465 0 0 0 .028 2.391l4.058 2.792c.016.013.063.05.135.235l3.32 8.038a.743.743 0 0 1 .03.445c-.07.257-.202.425-.45.572-.254.148-.462.179-.719.112-.148-.039-.368-.137-.62-.538l-2.952-7.044a1.472 1.472 0 0 0-.536-.652l-4.246-2.842a1.475 1.475 0 0 0-1.502-.076c-.476.254-.774.75-.775 1.29l-.027 10.13a1.19 1.19 0 0 1-2.031.835 1.186 1.186 0 0 1-.346-.841l.043-16.687c.006-.05.013-.117.014-.148.02-.313.055-.563.112-.784.21-.798.619-1.444 1.163-1.906l10.107-7.265c.429-.347 1.86-1.028 2.677-1.15.864-.126 1.738-.084 2.44.105l8.707 2.585a1.464 1.464 0 0 0 1.726-.748l4.087-8.172a1.241 1.241 0 0 1 2.285.163c.104.314.08.649-.068.945l-5.1 10.2a1.23 1.23 0 0 1-1.462.632L50.9 27.106a1.457 1.457 0 0 0-1.544.47 1.46 1.46 0 0 0-.173 1.602l3.071 5.96c.303.59.96.904 1.61.761l10.475-2.264a1.34 1.34 0 1 1 .57 2.622m-1.186-5.484l-9.38 2.027-.987-1.913 1.918.57c.387.115.788.175 1.191.175a4.147 4.147 0 0 0 3.728-2.302l5.1-10.201a4.141 4.141 0 0 0 .227-3.18 4.137 4.137 0 0 0-2.089-2.411 4.141 4.141 0 0 0-3.18-.226A4.14 4.14 0 0 0 57.84 15.4l-3.538 7.076-7.563-2.245c-1.11-.302-2.413-.367-3.666-.186-1.336.197-3.262 1.098-4.027 1.72l-10.125 7.28a6.654 6.654 0 0 0-2.398 4.767l-.007.064c-.75-2.359-2.935-4.083-5.538-4.083a5.845 5.845 0 0 0-5.838 5.838 5.845 5.845 0 0 0 5.838 5.838c2.57 0 4.736-1.684 5.51-3.998l-.032 13.402a4.087 4.087 0 0 0 1.197 2.915A4.094 4.094 0 0 0 30.573 55a4.123 4.123 0 0 0 4.115-4.106l.019-7.399 1.608 1.078 2.825 6.738c.025.06.054.119.086.175.606 1.034 1.43 1.695 2.445 1.962 1.003.267 2.019.124 2.949-.417.928-.551 1.532-1.343 1.797-2.352.185-.7.15-1.445-.126-2.23l-3.33-8.07a3.337 3.337 0 0 0-1.133-1.527l-2.416-1.664 5.128-3.71 3.766 6.239c1.02 1.662 2.764 2.51 4.643 2.123l12.58-2.723a4.277 4.277 0 0 0 3.271-5.074 4.278 4.278 0 0 0-5.076-3.271"/>
        <path fill="#FFF" d="M20.979 38.54a2.913 2.913 0 0 1-2.91-2.91 2.913 2.913 0 0 1 2.91-2.909 2.913 2.913 0 0 1 2.91 2.91 2.913 2.913 0 0 1-2.91 2.91M64.91 36.257l-12.567 2.72c-.6.126-1.163-.173-1.538-.783l-4.588-7.6a1.457 1.457 0 0 0-.979-.68c-.41-.08-.828.02-1.159.27l-8.063 5.85a1.465 1.465 0 0 0 .028 2.391l4.058 2.792c.016.013.063.05.135.235l3.32 8.038a.743.743 0 0 1 .03.445c-.07.257-.202.425-.45.572-.254.148-.462.179-.719.112-.148-.039-.368-.137-.62-.538l-2.952-7.044a1.472 1.472 0 0 0-.536-.652l-4.246-2.842a1.475 1.475 0 0 0-1.502-.076c-.476.254-.774.75-.775 1.29l-.027 10.13a1.19 1.19 0 0 1-2.031.835 1.186 1.186 0 0 1-.346-.841l.043-16.687c.006-.05.013-.117.014-.148.02-.313.055-.563.112-.784.21-.798.619-1.444 1.163-1.906l10.107-7.265c.429-.347 1.86-1.028 2.677-1.15.864-.126 1.738-.084 2.44.105l8.707 2.585a1.464 1.464 0 0 0 1.726-.748l4.087-8.172a1.241 1.241 0 0 1 2.285.163c.104.314.08.649-.068.945l-5.1 10.2a1.23 1.23 0 0 1-1.462.632L50.9 27.106a1.457 1.457 0 0 0-1.544.47 1.46 1.46 0 0 0-.173 1.602l3.071 5.96c.303.59.96.904 1.61.761l10.475-2.264a1.34 1.34 0 1 1 .57 2.622"/>
        <g transform="translate(71 -3)">
            <mask id="b" fill="#fff">
                <use xlink:href="#a"/>
            </mask>
            <path fill="#238288" d="M45.051 55.099H16.857V34.364c0-.786-.629-1.418-1.41-1.442a1.457 1.457 0 0 0-1.6.166l-3.54 2.921-6.686-8.217c.562.105 1.295.478 2.006.84 1.173.598 2.416 1.21 3.71 1.208 2-.018 4.918-2.084 5.833-2.77.08.012.15.047.234.047.802 0 1.452-.651 1.452-1.452V3.302h28.195V55.1zM46.504.401h-31.1c-.803 0-1.453.65-1.453 1.451v22.484c-.037.026-.08.033-.115.062l-.47.399c-1.38 1.03-3.337 2.137-4.05 2.142-.634-.04-1.505-.45-2.37-.89-.968-.493-1.97-1.004-3.032-1.147C2.158 24.664.68 26.152.4 26.452a1.448 1.448 0 0 0-.064 1.903l8.638 10.617a1.453 1.453 0 0 0 2.053.205l2.924-2.412v19.784c0 .8.65 1.451 1.453 1.451h31.099c.802 0 1.452-.65 1.452-1.451V1.852c0-.8-.65-1.45-1.452-1.45z" mask="url(#b)"/>
        </g>
    </g>
</svg>
