<svg xmlns="http://www.w3.org/2000/svg" width="95" height="77" viewBox="0 0 95 77">
    <g fill="none" fill-rule="evenodd">
        <path fill="#228288" d="M72.277 41.927h-3.315l3.277-3.284c.334-.334.517-.76.517-1.203 0-.442-.183-.868-.517-1.202a1.685 1.685 0 0 0-2.401 0l-5.676 5.689h-8.755l4.378-7.57 7.702-2.114c.435-.135.8-.42 1.021-.803.222-.382.274-.826.144-1.248a1.786 1.786 0 0 0-.8-1.03 1.545 1.545 0 0 0-1.246-.144l-4.509 1.224 1.706-2.917c.232-.399.296-.858.18-1.298a1.712 1.712 0 0 0-.798-1.04c-.4-.233-.859-.299-1.295-.18a1.7 1.7 0 0 0-1.04.8l-1.696 2.902-1.213-4.493c-.281-.916-1.177-1.436-2.046-1.166a1.78 1.78 0 0 0-1.027.804 1.552 1.552 0 0 0-.144 1.248l2.11 7.729-4.295 7.576-4.379-7.574 2.109-7.724a1.637 1.637 0 0 0-.149-1.297 1.583 1.583 0 0 0-1.003-.757 1.85 1.85 0 0 0-1.387.223 1.48 1.48 0 0 0-.674.927l-1.215 4.504-1.697-2.902a1.704 1.704 0 0 0-1.04-.8 1.678 1.678 0 0 0-1.293.18 1.711 1.711 0 0 0-.8 1.04c-.115.44-.052.9.18 1.298l1.707 2.917-4.5-1.22c-.925-.215-1.855.298-2.05 1.153a1.64 1.64 0 0 0 .145 1.306c.222.386.587.663 1.004.76l7.713 2.116.056.1 4.32 7.47h-8.753l-5.676-5.69a1.685 1.685 0 0 0-2.401 0c-.333.335-.517.761-.517 1.203 0 .443.184.87.517 1.203l3.277 3.284h-3.316A1.7 1.7 0 0 0 31 43.649a1.7 1.7 0 0 0 1.717 1.72h3.316l-3.277 3.286a1.7 1.7 0 0 0-.517 1.201c0 .443.184.87.517 1.203.316.318.708.48 1.16.48.375 0 .872-.12 1.14-.457l5.697-5.713h8.754l-4.377 7.572-7.702 2.114a1.775 1.775 0 0 0-1.021.8 1.552 1.552 0 0 0-.144 1.249c.202.746.864 1.243 1.65 1.243.14 0 .253 0 .354-.05l4.55-1.242-1.706 2.916a1.695 1.695 0 0 0 .619 2.339c.263.13.543.203.818.203.51 0 1.148-.25 1.426-.807l1.707-2.918 1.213 4.493c.2.738.863 1.234 1.648 1.234.14 0 .252 0 .352-.05.486-.153.851-.438 1.074-.821.222-.384.272-.827.144-1.248L48 54.664l.058-.102 4.318-7.469 4.378 7.57-2.11 7.725c-.131.433-.077.903.15 1.296a1.58 1.58 0 0 0 1.003.758c.161.073.276.073.415.073.786 0 1.448-.496 1.648-1.234l1.213-4.493 1.697 2.903c.475.762 1.393 1.048 2.27.61a1.695 1.695 0 0 0 .602-2.33l-1.705-2.916 4.499 1.222c.152.07.265.07.406.07.784 0 1.446-.497 1.647-1.236a1.64 1.64 0 0 0-.147-1.296 1.575 1.575 0 0 0-1.004-.758L59.62 52.94l-4.202-7.65h8.743l5.676 5.69a1.59 1.59 0 0 0 1.16.478c.376 0 .872-.12 1.14-.456.353-.357.538-.783.538-1.226a1.71 1.71 0 0 0-.517-1.203l-3.276-3.282h3.314c.964 0 1.718-.758 1.718-1.724 0-.888-.75-1.64-1.638-1.64"/>
        <path fill="#FFF" d="M62 70h2v-2h-2zM51 17h2v-2h-2zM64 20h2v-2h-2zM35 19h2v-2h-2zM41 72h2v-2h-2z"/>
    </g>
</svg>
