<svg xmlns="http://www.w3.org/2000/svg" xmlns:xlink="http://www.w3.org/1999/xlink" width="70" height="66" viewBox="0 0 70 66">
    <defs>
        <path id="a" d="M16.549 7c-1.169 0-2.215.56-2.891 1.43C9.536 13.97 0 27.847 0 36.93c0 11.45 8.306 16.616 16.488 16.616 8.181 0 16.486-5.103 16.486-16.616.063-9.084-9.473-22.961-13.533-28.5C18.763 7.5 17.717 7 16.55 7z"/>
        <path id="b" d="M0 .203h14.988V21H0z"/>
    </defs>
    <g fill="none" fill-rule="evenodd">
        <g transform="translate(10 6)">
            <use fill="#FFF" xlink:href="#a"/>
            <path stroke="#228288" d="M16.549 7.5c-.981 0-1.893.461-2.49 1.23C6.339 19.1.5 29.77.5 36.93c0 10.093 6.856 16.116 15.988 16.116 9.159 0 15.986-5.982 15.986-16.12.05-7.134-5.597-17.506-13.437-28.201-.574-.79-1.463-1.225-2.488-1.225z"/>
        </g>
        <path fill="#228288" stroke="#A6DADD" stroke-width=".5" d="M26.549 56.204c-9.474 0-12.797-6.659-12.797-12.88 0-8.09 9.72-21.904 12.797-26.135 3.138 4.23 12.796 18.045 12.796 26.135 0 6.221-3.323 12.88-12.796 12.88m0-42.749c-1.169 0-2.215.56-2.891 1.43C19.536 20.425 10 34.302 10 43.386 10 54.835 18.306 60 26.488 60c8.181 0 16.486-5.103 16.486-16.616.062-9.084-9.473-22.961-13.533-28.5-.678-.931-1.724-1.43-2.892-1.43z"/>
        <path fill="#248288" d="M23 44.5l1.5-1.5 1.5 1.5-1.5 1.5zM19.5 38l1.5 1.499L19.5 41 18 39.499zM18 47.5l1.499-1.5L21 47.5 19.499 49z"/>
        <g transform="translate(39 6)">
            <mask id="c" fill="#fff">
                <use xlink:href="#b"/>
            </mask>
            <path fill="#248288" stroke="#A6DADD" stroke-width=".5" d="M7.522 19.304c-4.306 0-5.816-2.975-5.816-5.755 0-3.615 4.418-9.787 5.816-11.677 1.427 1.89 5.817 8.062 5.817 11.677 0 2.78-1.51 5.755-5.817 5.755M8.837.843c-.308-.417-.784-.64-1.315-.64-.531 0-1.006.25-1.314.64C4.334 3.317 0 9.518 0 13.576 0 18.693 3.775 21 7.494 21c3.72 0 7.494-2.28 7.494-7.424.029-4.058-4.306-10.26-6.151-12.733" mask="url(#c)"/>
        </g>
        <path fill="#248288" d="M45 19.5l.5-.5.5.5-.5.5zM43.5 17l.5.5-.5.5-.5-.5zM43 21.5l.5-.5.5.5-.5.5z"/>
    </g>
</svg>
