<svg xmlns="http://www.w3.org/2000/svg" width="89" height="73" viewBox="0 0 89 73">
    <g fill="none" fill-rule="evenodd" stroke="#228288" stroke-width=".5">
        <path fill="#228288" d="M31.817 36h-5.634c-.652 0-1.183.567-1.183 1.263v15.474c0 .698.53 1.263 1.183 1.263h5.634c.652 0 1.183-.565 1.183-1.263V37.263c0-.696-.53-1.263-1.183-1.263z"/>
        <path fill="#FFF" d="M27.367 51.475h3.266v-12.95h-3.266z"/>
        <path fill="#228288" d="M43.817 54c.652 0 1.183-.529 1.183-1.182V33.182C45 32.53 44.47 32 43.817 32h-5.634c-.652 0-1.183.53-1.183 1.182v19.636c0 .653.53 1.182 1.183 1.182h5.634z"/>
        <path fill="#FFF" d="M39.367 51.637h3.266V34.364h-3.266z"/>
        <path fill="#228288" d="M55.817 54c.652 0 1.183-.552 1.183-1.234V28.234c0-.68-.53-1.234-1.183-1.234h-5.634c-.652 0-1.183.553-1.183 1.234v24.532c0 .682.53 1.234 1.183 1.234h5.634z"/>
        <path fill="#FFF" d="M51.367 51.532h3.266V29.468h-3.266z"/>
        <path fill="#238288" d="M67.816 23h-5.632C61.53 23 61 23.553 61 24.233v28.534c0 .681.53 1.233 1.184 1.233h5.632C68.47 54 69 53.448 69 52.767V24.233c0-.679-.53-1.233-1.184-1.233z"/>
        <path fill="#FFF" d="M63.366 51.534h3.267V25.466h-3.267z"/>
        <path fill="#238288" d="M68.326 8h-7.402a1.202 1.202 0 0 0 0 2.405h5.334c-3.761 3.91-15.456 13.85-40.265 18.209a1.203 1.203 0 0 0 .414 2.369C51.117 26.642 63.072 17.138 67.6 12.51v4.58c0 .662.538 1.202 1.2 1.202.662 0 1.2-.539 1.2-1.202V9.678C70 8.753 69.25 8 68.326 8M28 60h3v-3h-3zM35 60h3v-3h-3zM56 60h3v-3h-3zM63 60h3v-3h-3zM42 60h3v-3h-3zM49 60h3v-3h-3z"/>
    </g>
</svg>
