<svg xmlns="http://www.w3.org/2000/svg" width="73" height="69" viewBox="0 0 73 69">
    <g fill="none" fill-rule="evenodd">
        <path fill="#228288" d="M30.825 13.011v1.378H22.55a.68.68 0 0 1-.684-.69c0-.386.3-.688.684-.688h8.275zM46.32 14.39v-1.378h8.275c.384 0 .684.302.684.688 0 .387-.3.69-.684.69H46.32zM39.89 53.173V43.114h.79a2.381 2.381 0 0 0 2.372-2.385V29.963c.69-.068 1.159-.59 1.159-1.317V22.87H45c.777 0 1.318-.545 1.318-1.325V17.04h8.275c1.83 0 3.32-1.498 3.32-3.34 0-1.84-1.49-3.338-3.32-3.338H46.32V7.552c0-1.236-1.086-2.28-2.372-2.28h-10.75c-1.33 0-2.372 1.002-2.372 2.28v2.81H22.55c-1.83 0-3.32 1.497-3.32 3.337 0 1.842 1.49 3.34 3.32 3.34h8.275v4.505c0 .78.542 1.325 1.318 1.325h.79v5.777c0 .726.47 1.249 1.16 1.317v10.766a2.38 2.38 0 0 0 2.372 2.385h.79v10.06l-1.61 1.617a.266.266 0 0 0 0 .375l2.741 2.756a.26.26 0 0 0 .187.078.258.258 0 0 0 .185-.078l2.742-2.756a.266.266 0 0 0 0-.375l-1.61-1.618z"/>
        <path fill="#FFF" d="M36.728 40.464h3.69V29.971h-3.69zM35.569 27.321h6.113V22.87H35.57zM33.46 20.22h10.224V7.921H33.46z"/>
        <path fill="#238288" d="M29.622 45.343a1.137 1.137 0 0 0-1.116-.303c-.4.113-.705.439-.796.847l-1.28 5.71-5.513-5.536a1.113 1.113 0 0 0-.793-.331h-.006c-.3.002-.583.123-.794.34a1.156 1.156 0 0 0 .01 1.615l6.957 6.984a1.124 1.124 0 0 0 1.109.286c.394-.117.695-.442.783-.844l1.267-5.66 3.612 3.788c.21.22.492.344.791.35h.022c.291 0 .57-.114.782-.323.446-.439.459-1.162.027-1.613l-5.062-5.31zM24.264 44.694a1.144 1.144 0 0 0 1.077.264c.38-.103.679-.397.803-.784l.424-1.355.443.474c.216.23.503.36.813.365h.02c.302 0 .588-.12.805-.338.457-.459.47-1.217.027-1.689l-1.787-1.899a1.13 1.13 0 0 0-1.095-.331 1.18 1.18 0 0 0-.838.795l-.469 1.493-2.556-2.38c-.233-.214-.52-.336-.845-.304a1.123 1.123 0 0 0-.789.391 1.225 1.225 0 0 0 .082 1.686l3.883 3.611.002.001zM57.675 46.07a1.107 1.107 0 0 0-.794-.335h-.006c-.3 0-.58.117-.792.33l-5.518 5.534-1.28-5.707a1.134 1.134 0 0 0-.794-.848c-.396-.115-.824 0-1.113.302l-5.063 5.308a1.155 1.155 0 0 0 .027 1.613c.213.208.49.322.783.322h.02c.3-.006.581-.13.792-.35l3.613-3.788 1.268 5.656a1.13 1.13 0 0 0 1.097.893c.296 0 .585-.121.793-.33l6.958-6.984a1.155 1.155 0 0 0 .009-1.616M55.065 39.307l-2.553 2.378-.467-1.493a1.174 1.174 0 0 0-.842-.796 1.138 1.138 0 0 0-1.093.332l-1.786 1.9c-.442.472-.43 1.23.027 1.689.225.225.536.341.827.34a1.13 1.13 0 0 0 .809-.364l.446-.475.425 1.356a1.163 1.163 0 0 0 1.101.826c.285 0 .56-.108.778-.307l3.883-3.615a1.22 1.22 0 0 0 .082-1.685 1.137 1.137 0 0 0-1.637-.086"/>
    </g>
</svg>
