<svg xmlns="http://www.w3.org/2000/svg" width="74" height="71" viewBox="0 0 74 71">
    <g fill="none" fill-rule="evenodd">
        <g fill="#238288">
            <path d="M20.117 15.934h2.717a.25.25 0 0 0 .25-.25V10.25a.25.25 0 0 0-.25-.25h-2.717a.25.25 0 0 0-.25.25v5.434c0 .138.112.25.25.25M33.701 15.934h2.717a.25.25 0 0 0 .25-.25V10.25a.25.25 0 0 0-.25-.25h-2.717a.25.25 0 0 0-.25.25v5.434c0 .138.112.25.25.25M47.284 15.934h2.717a.25.25 0 0 0 .25-.25V10.25a.25.25 0 0 0-.25-.25h-2.717a.25.25 0 0 0-.25.25v5.434c0 .138.112.25.25.25M9.25 29.267h2.717V10.25H9.25zM11.967 31.734H9.25a.25.25 0 0 0-.25.25v2.717c0 .138.113.25.25.25h2.717a.25.25 0 0 0 .25-.25v-2.717a.25.25 0 0 0-.25-.25M11.967 37.168H9.25a.25.25 0 0 0-.25.25v2.716c0 .138.113.25.25.25h2.717a.25.25 0 0 0 .25-.25v-2.716a.25.25 0 0 0-.25-.25M60.868 34.7h2.717V10.25h-2.717zM63.585 37.168h-2.717a.25.25 0 0 0-.25.25v2.716c0 .138.113.25.25.25h2.717a.25.25 0 0 0 .25-.25v-2.716a.25.25 0 0 0-.25-.25M63.585 42.601h-2.717a.25.25 0 0 0-.25.25v2.717c0 .138.113.25.25.25h2.717a.25.25 0 0 0 .25-.25v-2.717a.25.25 0 0 0-.25-.25M33.415 58.77h2.328V47.129h-2.328V58.77zm16.299-27.939h-1.61l-.841-1.684a1.167 1.167 0 0 0-1.563-.521 1.166 1.166 0 0 0-.52 1.561l.322.644h-2.054l-.842-1.684a1.166 1.166 0 0 0-1.562-.521 1.166 1.166 0 0 0-.521 1.561l.322.644h-2.053l-.843-1.684a1.165 1.165 0 0 0-2.082 1.04l.321.644h-2.053l-.842-1.684a1.167 1.167 0 0 0-1.563-.521 1.166 1.166 0 0 0-.52 1.561l.321.644h-2.052l-.843-1.684a1.166 1.166 0 0 0-1.562-.521 1.166 1.166 0 0 0-.52 1.561l.321.644h-2.053l-.843-1.684a1.165 1.165 0 0 0-2.082 1.04l.321.644h-2.773v-9.313h30.269v9.313zm2.328-5.82v-4.657c0-.643-.521-1.164-1.164-1.164H18.281c-.643 0-1.164.52-1.164 1.164v4.657h-1.164a1.165 1.165 0 1 0 0 2.328h1.164v4.657c0 .643.521 1.164 1.164 1.164h32.597c.643 0 1.164-.521 1.164-1.164v-4.657h2.328v10.478H34.579c-.642 0-1.164.52-1.164 1.164v5.82h-1.164c-.643 0-1.164.522-1.164 1.165v13.97c0 .643.521 1.164 1.164 1.164h4.656c.644 0 1.165-.521 1.165-1.164v-13.97c0-.643-.521-1.164-1.165-1.164h-1.164v-4.657h19.791c.644 0 1.164-.521 1.164-1.164V26.175c0-.643-.52-1.164-1.164-1.164h-3.492z"/>
        </g>
        <path fill="#FFF" d="M49.714 30.831h-1.61l-.841-1.684a1.167 1.167 0 0 0-1.563-.521 1.166 1.166 0 0 0-.52 1.561l.322.644h-2.054l-.842-1.684a1.166 1.166 0 0 0-1.562-.521 1.166 1.166 0 0 0-.521 1.561l.322.644h-2.053l-.843-1.684a1.165 1.165 0 0 0-2.082 1.04l.321.644h-2.053l-.842-1.684a1.167 1.167 0 0 0-1.563-.521 1.166 1.166 0 0 0-.52 1.561l.321.644h-2.052l-.843-1.684a1.166 1.166 0 0 0-1.562-.521 1.166 1.166 0 0 0-.52 1.561l.321.644h-2.053l-.843-1.684a1.165 1.165 0 0 0-2.082 1.04l.321.644h-2.773v-9.313h30.269v9.313z"/>
    </g>
</svg>
