<svg xmlns="http://www.w3.org/2000/svg" xmlns:xlink="http://www.w3.org/1999/xlink" width="165" height="168" viewBox="0 0 165 168">
    <defs>
        <path id="b" d="M153.26 148.108l-.248 32.655-30.867-15.728a75.229 75.229 0 0 1-19.3 2.502c-41.486 0-75.117-33.632-75.117-75.118 0-41.487 33.631-75.118 75.118-75.118 41.487 0 75.118 33.631 75.118 75.118 0 22.085-9.53 41.944-24.704 55.689z"/>
        <filter id="a" width="109.3%" height="108.6%" x="-4.7%" y="-3.1%" filterUnits="objectBoundingBox">
            <feOffset dy="2" in="SourceAlpha" result="shadowOffsetOuter1"/>
            <feGaussianBlur in="shadowOffsetOuter1" result="shadowBlurOuter1" stdDeviation="2"/>
            <feColorMatrix in="shadowBlurOuter1" values="0 0 0 0 0 0 0 0 0 0 0 0 0 0 0 0 0 0 0.5 0"/>
        </filter>
    </defs>
    <g fill="none" fill-rule="evenodd">
        <g transform="rotate(70 97.915 73.752)">
            <use fill="#000" filter="url(#a)" xlink:href="#b"/>
            <use fill="#FFF" xlink:href="#b"/>
        </g>
        <path fill="#228288" d="M75 121.5l4.5 4.5 4.5-4.5-4.5-4.5z"/>
        <path fill="#A6DADD" d="M68 45h22v23H68zM73 70h13v30H73z"/>
        <path fill="#228288" d="M105.113 57.333H91.464v-3h13.65c.842 0 1.516.667 1.516 1.5 0 .834-.674 1.5-1.517 1.5zM74.276 77.667h10.616v-7.834H74.276v7.834zm1.854 20.666V81h6.74v17.333h-6.74zm-22.243-41a1.502 1.502 0 0 1-1.517-1.5c0-.833.674-1.5 1.517-1.5h13.649v3h-13.65zm17.02-11h17.187V66.5H70.906V46.333zM105.112 51H91.464v-4.833c0-1.667-1.516-3.167-3.37-3.167H70.906c-1.854 0-3.37 1.333-3.37 3.167V51h-13.65C51.192 51 49 53.167 49 55.833c0 2.667 2.19 4.834 4.887 4.834h13.649v7.5c0 1 .674 1.666 1.685 1.666h1.685v9.5c0 1 .674 1.667 1.685 1.667h.169v17.333c0 1.834 1.516 3.334 3.37 3.334h1.685v19.666c0 1 .674 1.667 1.685 1.667 1.011 0 1.685-.667 1.685-1.667v-19.666h1.685c1.854 0 3.37-1.5 3.37-3.334V81h.169c1.01 0 1.685-.667 1.685-1.667v-9.5h1.685c1.011 0 1.685-.666 1.685-1.666v-7.5h13.65c2.695 0 4.886-2.167 4.886-4.834 0-2.666-2.19-4.833-4.887-4.833z"/>
        <path stroke="#228288" stroke-width=".5" d="M105.113 57.333H91.464v-3h13.65c.842 0 1.516.667 1.516 1.5 0 .834-.674 1.5-1.517 1.5zM74.276 77.667h10.616v-7.834H74.276v7.834zm1.854 20.666V81h6.74v17.333h-6.74zm-22.243-41a1.502 1.502 0 0 1-1.517-1.5c0-.833.674-1.5 1.517-1.5h13.649v3h-13.65zm17.02-11h17.187V66.5H70.906V46.333zM105.112 51H91.464v-4.833c0-1.667-1.516-3.167-3.37-3.167H70.906c-1.854 0-3.37 1.333-3.37 3.167V51h-13.65C51.192 51 49 53.167 49 55.833c0 2.667 2.19 4.834 4.887 4.834h13.649v7.5c0 1 .674 1.666 1.685 1.666h1.685v9.5c0 1 .674 1.667 1.685 1.667h.169v17.333c0 1.834 1.516 3.334 3.37 3.334h1.685v19.666c0 1 .674 1.667 1.685 1.667 1.011 0 1.685-.667 1.685-1.667v-19.666h1.685c1.854 0 3.37-1.5 3.37-3.334V81h.169c1.01 0 1.685-.667 1.685-1.667v-9.5h1.685c1.011 0 1.685-.666 1.685-1.666v-7.5h13.65c2.695 0 4.886-2.167 4.886-4.834 0-2.666-2.19-4.833-4.887-4.833z"/>
        <path fill="#228288" d="M48.386 107.572a1.421 1.421 0 0 0 .01 1.958l10.796 11.07a1.317 1.317 0 0 0 1.314.345c.466-.143.823-.533.927-1.023l2.137-9.74 6.13 6.57c.519.554 1.358.57 1.893.036a1.42 1.42 0 0 0 .033-1.955l-7.852-8.413a1.321 1.321 0 0 0-1.326-.371c-.474.14-.834.53-.941 1.029l-2.15 9.798-9.08-9.314a1.305 1.305 0 0 0-1.89.01"/>
        <path stroke="#228288" stroke-width=".5" d="M48.386 107.572a1.421 1.421 0 0 0 .01 1.958l10.796 11.07a1.317 1.317 0 0 0 1.314.345c.466-.143.823-.533.927-1.023l2.137-9.74 6.13 6.57c.519.554 1.358.57 1.893.036a1.42 1.42 0 0 0 .033-1.955l-7.852-8.413a1.321 1.321 0 0 0-1.326-.371c-.474.14-.834.53-.941 1.029l-2.15 9.798-9.08-9.314a1.305 1.305 0 0 0-1.89.01z"/>
        <path fill="#228288" d="M56.414 103.655a1.383 1.383 0 0 0 1.27.299c.446-.118.8-.45.942-.883l.868-2.65 1.17 1.192c.52.538 1.381.548 1.922.03a1.331 1.331 0 0 0 .03-1.899l-2.745-2.796a1.372 1.372 0 0 0-1.285-.372 1.352 1.352 0 0 0-.987.896l-.92 2.803-4.406-3.927a1.37 1.37 0 0 0-1.922.096c-.504.552-.459 1.4.096 1.897l5.967 5.314z"/>
        <path stroke="#228288" stroke-width=".5" d="M56.414 103.655a1.383 1.383 0 0 0 1.27.299c.446-.118.8-.45.942-.883l.868-2.65 1.17 1.192c.52.538 1.381.548 1.922.03a1.331 1.331 0 0 0 .03-1.899l-2.745-2.796a1.372 1.372 0 0 0-1.285-.372 1.352 1.352 0 0 0-.987.896l-.92 2.803-4.406-3.927a1.37 1.37 0 0 0-1.922.096c-.504.552-.459 1.4.096 1.897l5.967 5.314z"/>
        <path fill="#228288" d="M93.227 106.42l-7.854 8.411a1.42 1.42 0 0 0 .035 1.955 1.3 1.3 0 0 0 1.891-.034l6.133-6.569 2.136 9.737c.104.49.465.882.926 1.024.123.037.251.056.375.056.347 0 .688-.143.938-.402l10.796-11.069c.526-.54.529-1.415.012-1.958a1.305 1.305 0 0 0-1.89-.007l-9.087 9.316-2.15-9.8a1.359 1.359 0 0 0-.944-1.027c-.464-.14-.973 0-1.317.366"/>
        <path stroke="#228288" stroke-width=".5" d="M93.227 106.42l-7.854 8.411a1.42 1.42 0 0 0 .035 1.955 1.3 1.3 0 0 0 1.891-.034l6.133-6.569 2.136 9.737c.104.49.465.882.926 1.024.123.037.251.056.375.056.347 0 .688-.143.938-.402l10.796-11.069c.526-.54.529-1.415.012-1.958a1.305 1.305 0 0 0-1.89-.007l-9.087 9.316-2.15-9.8a1.359 1.359 0 0 0-.944-1.027c-.464-.14-.973 0-1.317.366z"/>
        <path fill="#228288" d="M97.336 101.615l1.171-1.192.868 2.647a1.352 1.352 0 0 0 1.295.93c.333 0 .656-.12.916-.345l5.967-5.315a1.331 1.331 0 0 0 .095-1.896 1.373 1.373 0 0 0-1.923-.098l-4.405 3.927-.918-2.802a1.354 1.354 0 0 0-.987-.897 1.394 1.394 0 0 0-1.287.374l-2.745 2.795a1.332 1.332 0 0 0 .03 1.898c.544.52 1.402.507 1.923-.026"/>
        <path stroke="#228288" stroke-width=".5" d="M97.336 101.615l1.171-1.192.868 2.647a1.352 1.352 0 0 0 1.295.93c.333 0 .656-.12.916-.345l5.967-5.315a1.331 1.331 0 0 0 .095-1.896 1.373 1.373 0 0 0-1.923-.098l-4.405 3.927-.918-2.802a1.354 1.354 0 0 0-.987-.897 1.394 1.394 0 0 0-1.287.374l-2.745 2.795a1.332 1.332 0 0 0 .03 1.898c.544.52 1.402.507 1.923-.026z"/>
    </g>
</svg>
