<svg xmlns="http://www.w3.org/2000/svg" xmlns:xlink="http://www.w3.org/1999/xlink" width="205" height="210" viewBox="0 0 205 210">
    <defs>
        <path id="b" d="M162.909 162.333l-.302 39.777-37.6-19.158A91.635 91.635 0 0 1 101.5 186C50.966 186 10 145.034 10 94.5S50.966 3 101.5 3 193 43.966 193 94.5c0 26.902-11.61 51.092-30.091 67.833z"/>
        <filter id="a" width="107.7%" height="107%" x="-3.8%" y="-2.5%" filterUnits="objectBoundingBox">
            <feOffset dy="2" in="SourceAlpha" result="shadowOffsetOuter1"/>
            <feGaussianBlur in="shadowOffsetOuter1" result="shadowBlurOuter1" stdDeviation="2"/>
            <feColorMatrix in="shadowBlurOuter1" values="0 0 0 0 0 0 0 0 0 0 0 0 0 0 0 0 0 0 0.5 0"/>
        </filter>
    </defs>
    <g fill="none" fill-rule="evenodd">
        <g transform="translate(0 2)">
            <use fill="#000" filter="url(#a)" xlink:href="#b"/>
            <use fill="#FFF" xlink:href="#b"/>
        </g>
        <path fill="#FFF" d="M111.5 70h4a.5.5 0 0 1 .5.5v4a.5.5 0 0 1-.5.5h-4a.5.5 0 0 1-.5-.5v-4a.5.5 0 0 1 .5-.5"/>
        <path fill="#FFF" d="M115.167 70h-3.334a.834.834 0 0 0-.833.833v3.334c0 .46.373.833.833.833h3.334c.46 0 .833-.373.833-.833v-3.334a.834.834 0 0 0-.833-.833zm-3.334 4.167h3.334v-3.334h-3.334v3.334zM100.5 70h4a.5.5 0 0 1 .5.5v4a.5.5 0 0 1-.5.5h-4a.5.5 0 0 1-.5-.5v-4a.5.5 0 0 1 .5-.5"/>
        <path fill="#FFF" d="M104.167 70h-3.334a.834.834 0 0 0-.833.833v3.334c0 .46.373.833.833.833h3.334c.46 0 .833-.373.833-.833v-3.334a.834.834 0 0 0-.833-.833zm-3.334 4.167h3.334v-3.334h-3.334v3.334zM89.5 70h4a.5.5 0 0 1 .5.5v4a.5.5 0 0 1-.5.5h-4a.5.5 0 0 1-.5-.5v-4a.5.5 0 0 1 .5-.5"/>
        <path fill="#FFF" d="M93.167 70h-3.334a.834.834 0 0 0-.833.833v3.334c0 .46.373.833.833.833h3.334c.46 0 .833-.373.833-.833v-3.334a.834.834 0 0 0-.833-.833zm-3.334 4.167h3.334v-3.334h-3.334v3.334z"/>
        <path fill="#228288" d="M102.01 47.044l33.53 33.57H68.499l33.512-33.57zm-29.604 78.038h59.226V85.478H72.406v39.604zm-9.862-39.604h4.93v42.054A2.466 2.466 0 0 0 69.94 130h64.103a2.466 2.466 0 0 0 2.466-2.468V85.478h4.93a2.467 2.467 0 0 0 1.827-4.224l-39.484-39.53a2.464 2.464 0 0 0-3.487-.002l-.002.002-39.502 39.475a2.468 2.468 0 1 0 1.753 4.279z"/>
        <path fill="#228288" stroke="#228288" d="M119.383 141.272a5.757 5.757 0 0 1-4.714-2.48l-9.937-14.28a1.433 1.433 0 0 0-1.178-.62h-2.303l-1.433-1.442 6.6-6.638 1.433 1.44v2.226c0 .472.23.915.617 1.185l14.197 9.995c2.644 1.785 3.35 5.39 1.574 8.048a5.759 5.759 0 0 1-4.856 2.566zM87.67 139.85a5.021 5.021 0 0 1-7.126.199 5.092 5.092 0 0 1 0-7.367l15.177-15.265 2.539 2.553-1.505 1.514a1.446 1.446 0 0 0-.006 2.037l.006.005 2.883 2.9c.252.254.588.403.943.42L87.67 139.85zm-1.106-35.73a1.426 1.426 0 0 0-1.015-.419h-2.792l-3.264-5.635 2.72-2.736 5.53 3.338v2.79c-.002.383.149.75.417 1.021l14.397 14.482-1.56 1.568-14.433-14.408zm16.882 5.472a1.45 1.45 0 0 0 .38-1.35c-1.035-4.612.99-9.37 5.023-11.8a10.732 10.732 0 0 1 9.701-.62l-4.968 2.882c-.45.257-.727.739-.725 1.258v5.837c0 .51.27.981.707 1.24l5.004 2.936a1.425 1.425 0 0 0 1.451 0l4.968-2.881c-.703 5.942-6.063 10.182-11.97 9.475-.37-.044-.739-.108-1.103-.192a8.162 8.162 0 0 1-1.813-.875l-2.757-2.773a1.426 1.426 0 0 0-2.03 0l-1.505 1.514-2.54-2.553 2.177-2.098zm20.87 18.768l-12.475-8.791.218-.22c7.434 1.272 14.484-3.76 15.748-11.238.147-.859.21-1.732.19-2.604a2.019 2.019 0 0 0-2.045-1.992 2.027 2.027 0 0 0-.983.278l-5.62 3.264-3.591-2.17v-4.177l5.621-3.264a2.03 2.03 0 0 0 0-3.502 13.606 13.606 0 0 0-14.017 0c-4.84 2.929-7.425 8.524-6.527 14.135l-1.56 1.568-8.74-8.79v-3.028c0-.511-.27-.982-.707-1.24l-7.253-4.341a1.426 1.426 0 0 0-1.813.218l-4.316 4.341a1.447 1.447 0 0 0-.217 1.824l4.315 7.295c.258.44.726.712 1.233.712h3.155l8.74 8.79-15.177 15.266c-2.912 3.287-2.625 8.324.642 11.253a7.887 7.887 0 0 0 10.546 0l13.854-13.934 8.74 12.548c2.879 3.821 8.291 4.573 12.092 1.676 3.799-2.894 4.546-8.34 1.666-12.161a8.635 8.635 0 0 0-1.718-1.716z"/>
        <path fill="#A6DADD" d="M103.202 109.848c.354-.359.5-.877.385-1.369-1.048-4.677 1.002-9.502 5.083-11.965a10.84 10.84 0 0 1 9.816-.629l-5.027 2.922c-.455.261-.736.75-.734 1.276v5.918c0 .518.273.995.715 1.258l5.065 2.977a1.44 1.44 0 0 0 1.467 0l5.028-2.922c-.712 6.026-6.136 10.325-12.114 9.608-.374-.045-.747-.11-1.115-.194a8.252 8.252 0 0 1-1.835-.888l-2.79-2.811a1.441 1.441 0 0 0-2.049-.006l-.005.006-1.523 1.535-2.569-2.59 2.202-2.126zM86.052 103.643a1.427 1.427 0 0 0-1.013-.416h-2.784L79 97.712 81.712 95l5.515 3.309v2.766c-.002.38.148.744.416 1.013L102 116.445 100.445 118l-14.393-14.357zM87.858 139.416c-1.947 2.032-5.195 2.121-7.253.198a5.022 5.022 0 0 1 0-7.36L96.053 117l2.584 2.551-1.532 1.513a1.426 1.426 0 0 0-.005 2.036l.005.005 2.935 2.898c.257.253.598.402.96.419l-13.142 12.994zM115.201 138.564l-10.171-14.022a1.486 1.486 0 0 0-1.206-.609h-2.358L100 122.52l6.756-6.519 1.466 1.415v2.185c0 .463.236.898.631 1.164l14.534 9.813c2.706 1.753 3.428 5.292 1.61 7.903-1.11 1.594-2.978 2.543-4.97 2.52-1.925-.006-3.725-.914-4.826-2.436z"/>
    </g>
</svg>
