<?xml version="1.0" encoding="UTF-8"?>
<svg width="184px" height="657px" viewBox="0 0 184 657" version="1.1" xmlns="http://www.w3.org/2000/svg" xmlns:xlink="http://www.w3.org/1999/xlink">
    <!-- Generator: Sketch 48.2 (47327) - http://www.bohemiancoding.com/sketch -->
    <title>background-icons</title>
    <desc>Created with Sketch.</desc>
    <defs>
        <polygon id="path-1" points="0 0.99675 58.0452212 0.99675 58.0452212 36 0 36"></polygon>
        <polygon id="path-3" points="0 38.1035 52.5 38.1035 52.5 0.9995 0 0.9995"></polygon>
        <polygon id="path-5" points="0 0.3214 26.999939 0.3214 26.999939 37.9994 0 37.9994"></polygon>
        <polygon id="path-7" points="0.4318 0.365 26.8768 0.365 26.8768 35.3388 0.4318 35.3388"></polygon>
        <polygon id="path-9" points="0.8965 0.0757528316 43.1333308 0.0757528316 43.1333308 33 0.8965 33"></polygon>
        <polygon id="path-11" points="0.00896174228 0.3182 37.965 0.3182 37.965 46 0.00896174228 46"></polygon>
        <polygon id="path-13" points="9.03793189e-05 0.488 45.9457296 0.488 45.9457296 57 9.03793189e-05 57"></polygon>
        <polygon id="path-15" points="0.2189 0.257 36.9179 0.257 36.9179 49.9996 0.2189 49.9996"></polygon>
        <polygon id="path-17" points="0 52.0995 54.835 52.0995 54.835 0.9995 0 0.9995"></polygon>
        <polygon id="path-19" points="0 0.214204509 38.8198336 0.214204509 38.8198336 26.9998579 0 26.9998579"></polygon>
        <polygon id="path-21" points="0.7033 0.86 45.271 0.86 45.271 37.9998 0.7033 37.9998"></polygon>
        <polygon id="path-23" points="0 38.14 90.271 38.14 90.271 1 0 1"></polygon>
        <polygon id="path-25" points="0 0.0001 36.7746 0.0001 36.7746 41.8331 0 41.8331"></polygon>
        <polygon id="path-27" points="0.00011029611 0.278877358 26.4209488 0.278877358 26.4209488 35 0.00011029611 35"></polygon>
    </defs>
    <g id="Menu" stroke="none" stroke-width="1" fill="none" fill-rule="evenodd" transform="translate(-20.000000, -23.000000)" opacity="0.5">
        <g id="Group-16">
            <g id="background-icons" transform="translate(20.000000, 22.000000)">
                <g id="Page-1" opacity="0.2" transform="translate(53.500000, 338.000000) rotate(-34.000000) translate(-53.500000, -338.000000) translate(24.000000, 320.000000)">
                    <path d="M51.6890547,16 C51.8606965,16 52,15.8607398 52,15.6891514 L52,12.3108486 C52,12.1392602 51.8606965,12 51.6890547,12 L48.3109453,12 C48.1393035,12 48,12.1392602 48,12.3108486 L48,15.6891514 C48,15.8607398 48.1393035,16 48.3109453,16 L51.6890547,16 Z" id="Fill-1" fill="#FEFEFE"></path>
                    <path d="M37.6246426,8.64715634 C40.0354155,8.09051392 41.9835596,9.66401494 42.4750333,11.5048797 C42.5626776,11.8347012 42.776796,12.1097352 43.0752304,12.2795769 C43.3714459,12.4505143 43.716476,12.4965359 44.0426459,12.40778 C44.3743629,12.3212155 44.6517183,12.1130225 44.824788,11.8204565 C44.9978578,11.5267947 45.0444535,11.1849198 44.9568092,10.8594813 C44.0404271,7.4199132 40.5646095,5.36208944 37.0399775,6.17842528 C35.3159365,6.57618355 33.7793878,7.67960662 32.8241759,9.20379877 C32.5201944,9.68812151 32.2916535,10.2338064 32.1119273,10.8046936 L30.2836007,10.8046936 C29.5757898,10.8046936 29,11.3733893 29,12.0724796 C29,12.7715699 29.5757898,13.3402656 30.2836007,13.3402656 L31.6714869,13.3402656 C31.6515173,13.7073428 31.6481891,14.070037 31.6603927,14.4272524 L30.2836007,14.4272524 C29.5757898,14.4272524 29,14.9959481 29,15.6950384 C29,16.3941287 29.5757898,16.9628244 30.2836007,16.9628244 L32.0253924,16.9628244 C32.7021395,19.3701933 34.6447365,21.2691329 37.0399775,21.822488 C37.5503114,21.9397336 38.0695206,22 38.5854016,22 C41.5741831,22 44.1946366,20.0024426 44.9568092,17.1425278 C45.0444535,16.8148977 44.9978578,16.4741186 44.824788,16.1804569 C44.6517183,15.8878909 44.3743629,15.6786021 44.0448647,15.5931334 C43.7131477,15.5065689 43.3703365,15.5514948 43.0741209,15.7213364 C42.7756866,15.8911781 42.5626776,16.1662121 42.4739239,16.4960337 C41.9835596,18.3368984 40.0376343,19.9103994 37.6246426,19.353757 C36.3654492,19.0622867 35.3070611,18.1560992 34.7490221,16.9628244 L38.191557,16.9628244 C38.8993679,16.9628244 39.4751577,16.3941287 39.4751577,15.6950384 C39.4751577,14.9959481 38.8993679,14.4272524 38.191557,14.4272524 L34.2187187,14.4272524 C34.2020773,14.0678455 34.2009679,13.7040555 34.2253752,13.3402656 L38.191557,13.3402656 C38.8993679,13.3402656 39.4751577,12.7715699 39.4751577,12.0724796 C39.4751577,11.3733893 38.8993679,10.8046936 38.191557,10.8046936 L34.8699491,10.8046936 C34.9165448,10.7159376 34.9553745,10.6206071 35.0064079,10.5384257 C35.6066049,9.58292924 36.5607074,8.89370072 37.6246426,8.64715634" id="Fill-3" fill="#FEFEFE"></path>
                    <g id="Group-7">
                        <mask id="mask-2" fill="white">
                            <use xlink:href="#path-1"></use>
                        </mask>
                        <g id="Clip-6"></g>
                        <path d="M55.4197212,21.7353375 L55.4197212,24.4454625 L52.6864327,24.4454625 L55.4197212,21.7353375 Z M19.5556635,6.3262125 L19.5556635,3.6003375 L22.3048365,3.6003375 L19.5556635,6.3262125 Z M55.4197212,6.3262125 L52.6705481,3.6003375 L55.4197212,3.6003375 L55.4197212,6.3262125 Z M38.6535096,24.4454625 L19.5556635,24.4454625 L19.5556635,21.2864625 C20.5268942,21.0153375 21.6399519,20.7487125 22.9254712,20.5057125 C25.6406058,19.9938375 27.5036442,18.8710875 28.4623942,17.1700875 C29.7104712,14.9538375 28.8492981,12.6475875 28.8118558,12.5497125 C28.607625,12.0187125 28.0743558,11.6744625 27.5274712,11.7127125 C26.6141058,11.7520875 25.3524135,11.7790875 23.9330096,11.8094625 C22.5328942,11.8387125 21.0306635,11.8702125 19.5556635,11.9185875 L19.5556635,10.0083375 L26.0172981,3.6003375 L48.9580865,3.6003375 L55.4197212,10.0083375 L55.4197212,18.0532125 L48.9739712,24.4454625 L38.6580481,24.4454625 L38.6535096,24.4454625 Z M56.7324712,0.9959625 L18.2429135,0.9959625 C17.5190288,0.9959625 16.9301635,1.5798375 16.9301635,2.2987125 L16.9301635,12.0299625 C14.5769712,12.1537125 12.5346635,12.3505875 11.4431635,12.6880875 C8.79950962,13.5070875 0.926413462,16.4714625 0.846990385,16.5007125 C0.170759615,16.7560875 -0.171894231,17.5087125 0.0856634615,18.1803375 C0.340951923,18.8474625 1.09774038,19.1883375 1.78191346,18.9340875 C1.85452885,18.9070875 9.68791346,15.9595875 12.2260481,15.1732125 C13.9994519,14.6242125 20.0106442,14.4959625 24.0612212,14.4104625 C24.9564327,14.3913375 25.7881058,14.3733375 26.5097212,14.3530875 C26.5312788,14.8098375 26.4677404,15.3700875 26.1693365,15.9010875 C25.6077019,16.8978375 24.3516827,17.5863375 22.4341827,17.9497125 C15.4086442,19.2760875 12.7434327,21.3325875 12.6322404,21.4203375 C12.072875,21.8658375 11.9798365,22.6825875 12.4246058,23.2417125 C12.6753558,23.5555875 13.0509135,23.7355875 13.4559712,23.7355875 C13.7464327,23.7355875 14.034625,23.6377125 14.2638173,23.4610875 C14.2774327,23.4509625 15.0716635,22.8670875 16.9301635,22.1482125 L16.9301635,25.7459625 C16.9301635,26.4648375 17.5190288,27.0487125 18.2429135,27.0487125 L33.7394904,27.0487125 C33.4093173,27.2500875 33.0825481,27.4492125 32.7364904,27.6629625 C28.578125,30.2167125 23.4042788,33.3948375 20.0753173,33.3948375 L20.0719135,33.3948375 C16.497875,33.3239625 13.7566442,32.7704625 10.5763173,32.1269625 C8.01889423,31.6105875 5.11995192,31.0244625 1.44379808,30.6599625 C1.09547115,30.6250875 0.753951923,30.7263375 0.482778846,30.9468375 C0.210471154,31.1673375 0.0414134615,31.4800875 0.007375,31.8265875 C-0.0652403846,32.5398375 0.462355769,33.1788375 1.18283654,33.2508375 C4.72283654,33.6018375 7.42889423,34.1485875 10.0589327,34.6784625 C13.2188365,35.3185875 16.202875,35.9227125 20.0253942,35.9992125 L20.1638173,36.0003375 C24.1508558,36.0003375 29.4495096,32.7445875 34.1524904,29.8555875 C35.9939712,28.7249625 37.7219904,27.6685875 39.0199904,27.0487125 L56.7324712,27.0487125 C57.4563558,27.0487125 58.0452212,26.4648375 58.0452212,25.7459625 L58.0452212,2.2987125 C58.0452212,1.5798375 57.4563558,0.9959625 56.7324712,0.9959625 Z" id="Fill-5" fill="#FEFEFE" mask="url(#mask-2)"></path>
                    </g>
                </g>
                <g id="Page-1" opacity="0.2" transform="translate(0.000000, 136.000000)">
                    <path d="M43.835,18.0224 L40.882,18.0224 L43.801,15.1034 C44.098,14.8064 44.262,14.4264 44.262,14.0344 C44.262,13.6414 44.098,13.2614 43.801,12.9644 C43.207,12.3694 42.256,12.3694 41.662,12.9644 L36.604,18.0224 L28.803,18.0224 L32.703,11.2924 L39.567,9.4134 C39.954,9.2934 40.279,9.0404 40.477,8.7004 C40.675,8.3594 40.721,7.9654 40.605,7.5904 C40.484,7.1974 40.231,6.8724 39.891,6.6744 C39.552,6.4764 39.158,6.4314 38.781,6.5464 L34.764,7.6344 L36.284,5.0424 C36.491,4.6864 36.548,4.2774 36.445,3.8874 C36.342,3.4994 36.09,3.1704 35.733,2.9624 C35.377,2.7554 34.968,2.6974 34.579,2.8014 C34.19,2.9044 33.861,3.1574 33.653,3.5134 L32.142,6.0934 L31.061,2.0994 C30.81,1.2854 30.013,0.8234 29.238,1.0634 C28.845,1.1834 28.52,1.4374 28.322,1.7774 C28.124,2.1184 28.078,2.5114 28.193,2.8864 L30.074,9.7584 L26.247,16.4944 L22.345,9.7604 L24.224,2.8934 C24.343,2.5074 24.294,2.0904 24.092,1.7404 C23.895,1.3984 23.568,1.1534 23.198,1.0674 C22.77,0.9694 22.319,1.0414 21.961,1.2664 C21.742,1.4034 21.462,1.6574 21.361,2.0894 L20.278,6.0934 L18.766,3.5134 C18.558,3.1574 18.229,2.9044 17.84,2.8014 C17.452,2.6974 17.042,2.7554 16.687,2.9624 C16.33,3.1704 16.077,3.4994 15.974,3.8874 C15.871,4.2774 15.928,4.6864 16.135,5.0424 L17.655,7.6344 L13.647,6.5484 C12.821,6.3584 11.993,6.8154 11.818,7.5744 C11.697,7.9684 11.746,8.3864 11.948,8.7364 C12.146,9.0794 12.472,9.3254 12.843,9.4114 L19.716,11.2924 L19.767,11.3804 L23.616,18.0224 L15.815,18.0224 L10.758,12.9644 C10.162,12.3694 9.212,12.3694 8.618,12.9644 C8.321,13.2614 8.157,13.6414 8.157,14.0344 C8.157,14.4264 8.321,14.8064 8.618,15.1034 L11.538,18.0224 L8.584,18.0224 C7.726,18.0224 7.054,18.6944 7.054,19.5524 C7.054,20.4114 7.726,21.0834 8.584,21.0834 L11.538,21.0834 L8.618,24.0024 C8.321,24.2994 8.157,24.6794 8.157,25.0724 C8.157,25.4644 8.321,25.8444 8.618,26.1414 C8.9,26.4234 9.249,26.5674 9.652,26.5674 C9.986,26.5674 10.429,26.4604 10.668,26.1624 L15.744,21.0834 L23.545,21.0834 L19.645,27.8144 L12.781,29.6934 C12.395,29.8114 12.069,30.0654 11.871,30.4054 C11.673,30.7464 11.628,31.1394 11.743,31.5144 C11.924,32.1784 12.514,32.6204 13.213,32.6204 C13.339,32.6204 13.439,32.6204 13.529,32.5754 L17.584,31.4714 L16.064,34.0644 C15.856,34.4194 15.8,34.8294 15.903,35.2184 C16.006,35.6074 16.259,35.9354 16.615,36.1434 C16.849,36.2594 17.099,36.3234 17.344,36.3234 C17.798,36.3234 18.367,36.1014 18.615,35.6064 L20.136,33.0124 L21.217,37.0064 C21.396,37.6634 21.985,38.1034 22.685,38.1034 C22.811,38.1034 22.91,38.1034 22.999,38.0584 C23.432,37.9224 23.757,37.6684 23.955,37.3294 C24.153,36.9884 24.198,36.5944 24.083,36.2194 L22.202,29.3454 L22.255,29.2554 L26.103,22.6154 L30.003,29.3454 L28.124,36.2124 C28.006,36.5984 28.055,37.0154 28.257,37.3654 C28.453,37.7084 28.779,37.9534 29.15,38.0394 C29.295,38.1034 29.396,38.1034 29.522,38.1034 C30.221,38.1034 30.811,37.6634 30.989,37.0064 L32.07,33.0124 L33.582,35.5924 C34.005,36.2704 34.823,36.5244 35.606,36.1354 C35.947,35.9354 36.2,35.6074 36.303,35.2184 C36.406,34.8294 36.349,34.4194 36.142,34.0644 L34.621,31.4714 L38.631,32.5574 C38.767,32.6204 38.866,32.6204 38.992,32.6204 C39.691,32.6204 40.281,32.1784 40.46,31.5224 C40.579,31.1354 40.53,30.7184 40.329,30.3694 C40.132,30.0264 39.806,29.7814 39.435,29.6954 L32.558,27.8134 L28.814,21.0124 L36.604,21.0124 L41.662,26.0704 C41.944,26.3524 42.292,26.4964 42.695,26.4964 C43.029,26.4964 43.472,26.3894 43.711,26.0904 C44.026,25.7734 44.19,25.3934 44.19,25.0014 C44.19,24.6084 44.026,24.2284 43.73,23.9314 L40.811,21.0124 L43.764,21.0124 C44.622,21.0124 45.294,20.3394 45.294,19.4814 C45.294,18.6904 44.626,18.0224 43.835,18.0224" id="Fill-1" fill="#FEFEFE"></path>
                    <mask id="mask-4" fill="white">
                        <use xlink:href="#path-3"></use>
                    </mask>
                    <g id="Clip-4"></g>
                    <polygon id="Fill-3" fill="#FEFEFE" mask="url(#mask-4)" points="0 11.4395 2 11.4395 2 9.4395 0 9.4395"></polygon>
                    <polygon id="Fill-5" fill="#FEFEFE" mask="url(#mask-4)" points="50.5 23.9395 52.5 23.9395 52.5 21.9395 50.5 21.9395"></polygon>
                    <polygon id="Fill-6" fill="#FEFEFE" mask="url(#mask-4)" points="3.5 30.9395 5.5 30.9395 5.5 28.9395 3.5 28.9395"></polygon>
                    <polygon id="Fill-7" fill="#FEFEFE" mask="url(#mask-4)" points="48 8.4395 50 8.4395 50 6.4395 48 6.4395"></polygon>
                </g>
                <g id="Page-1" opacity="0.2" transform="translate(153.000000, 0.000000)">
                    <g id="Group-3" transform="translate(0.000000, 0.678800)">
                        <mask id="mask-6" fill="white">
                            <use xlink:href="#path-5"></use>
                        </mask>
                        <g id="Clip-2"></g>
                        <path d="M13.5507,34.9274 C5.7927,34.9274 3.0727,29.5374 3.0727,24.4994 C3.0727,17.9514 11.0317,6.7694 13.5507,3.3434 C16.1187,6.7694 24.0287,17.9514 24.0287,24.4994 C24.0287,29.5374 21.3077,34.9274 13.5507,34.9274 M15.9177,1.4804 C15.3637,0.7244 14.5077,0.3214 13.5507,0.3214 C12.5937,0.3214 11.7377,0.7754 11.1827,1.4804 C7.8077,5.9624 -0.0003,17.1964 -0.0003,24.5504 C-0.0003,33.8194 6.8007,37.9994 13.4997,37.9994 C20.1987,37.9994 26.9997,33.8694 26.9997,24.5504 C27.0497,17.1964 19.2417,5.9624 15.9177,1.4804" id="Fill-1" fill="#FEFEFE" mask="url(#mask-6)"></path>
                    </g>
                    <polygon id="Fill-4" fill="#FEFEFE" points="11.1356 25.7742 12.5506 24.3602 13.9646 25.7742 12.5506 27.1882"></polygon>
                    <polygon id="Fill-6" fill="#FEFEFE" points="7.9198 21.3601 9.3338 22.7741 7.9198 24.1881 6.5058 22.7741"></polygon>
                    <polygon id="Fill-8" fill="#FEFEFE" points="6.5057 28.7742 7.9197 27.3602 9.3337 28.7742 7.9197 30.1882"></polygon>
                </g>
                <g id="Page-1" opacity="0.2" transform="translate(151.000000, 320.000000)">
                    <polygon id="Fill-1" fill="#FEFEFE" points="0 41.6349 2.717 41.6349 2.717 38.9179 0 38.9179"></polygon>
                    <polygon id="Fill-2" fill="#FEFEFE" points="5.718 41.6349 8.435 41.6349 8.435 38.9179 5.718 38.9179"></polygon>
                    <polygon id="Fill-3" fill="#FEFEFE" points="22.874 41.6349 25.59 41.6349 25.59 38.9179 22.874 38.9179"></polygon>
                    <polygon id="Fill-4" fill="#FEFEFE" points="28.591 41.6349 31.307 41.6349 31.307 38.9179 28.591 38.9179"></polygon>
                    <polygon id="Fill-5" fill="#FEFEFE" points="11.436 41.6349 14.153 41.6349 14.153 38.9179 11.436 38.9179"></polygon>
                    <polygon id="Fill-6" fill="#FEFEFE" points="17.154 41.6349 19.871 41.6349 19.871 38.9179 17.154 38.9179"></polygon>
                    <g id="Group-9" transform="translate(2.000000, 0.634900)">
                        <mask id="mask-8" fill="white">
                            <use xlink:href="#path-7"></use>
                        </mask>
                        <g id="Clip-8"></g>
                        <path d="M17.6388,27.7518 L21.6388,23.6898 L14.6548,14.4168 L21.3258,8.9178 L24.2168,11.5078 L24.2558,32.2258 L17.6388,27.7518 Z M3.2008,32.5548 L3.0988,11.2968 L4.2428,14.3058 L8.8508,11.1248 L18.3188,23.5978 L13.8568,28.1278 L19.9508,32.5548 L3.2008,32.5548 Z M3.0988,4.3398 L3.0988,3.0548 L24.2008,3.0548 L24.2098,8.1458 L21.3938,5.6218 L13.1488,12.4188 L9.5738,7.6718 L5.4118,10.5458 L3.0518,4.3398 L3.0988,4.3398 Z M26.8768,1.6758 C26.8768,0.9518 26.2898,0.3648 25.5668,0.3648 L1.7418,0.3648 C1.0178,0.3648 0.4318,0.9518 0.4318,1.6758 L0.4318,34.0288 C0.4318,34.7518 1.0178,35.3388 1.7418,35.3388 L25.5668,35.3388 C26.2898,35.3388 26.8768,34.7518 26.8768,34.0288 L26.8768,1.6758 Z" id="Fill-7" fill="#FEFEFE" mask="url(#mask-8)"></path>
                    </g>
                </g>
                <g id="Page-1" opacity="0.2" transform="translate(135.961589, 546.290069) rotate(31.000000) translate(-135.961589, -546.290069) translate(92.961589, 522.790069)">
                    <path d="M68.3364,24.9355 C69.7594,24.9355 70.9164,23.7785 70.9164,22.3555 C70.9164,20.9325 69.7594,19.7755 68.3364,19.7755 C66.9134,19.7755 65.7564,20.9325 65.7564,22.3555 C65.7564,23.7785 66.9134,24.9355 68.3364,24.9355" id="Fill-1" fill="#FEFEFE"></path>
                    <path d="M48.5317,16.0322 C48.5807,16.0812 48.6447,16.1052 48.7087,16.1052 C48.7727,16.1052 48.8367,16.0812 48.8857,16.0322 L50.8437,14.0742 C50.8907,14.0272 50.9167,13.9642 50.9167,13.8972 C50.9167,13.8312 50.8907,13.7672 50.8437,13.7202 L48.8857,11.7622 C48.7877,11.6652 48.6297,11.6652 48.5317,11.7622 L46.5737,13.7202 C46.5267,13.7672 46.4997,13.8312 46.4997,13.8972 C46.4997,13.9642 46.5267,14.0272 46.5737,14.0742 L48.5317,16.0322 Z" id="Fill-3" fill="#FEFEFE"></path>
                    <path d="M4.417,36.3974 C4.417,36.3314 4.391,36.2674 4.344,36.2204 L2.385,34.2624 C2.288,34.1654 2.129,34.1654 2.032,34.2624 L0.073,36.2204 C0.026,36.2674 0,36.3314 0,36.3974 C0,36.4634 0.026,36.5274 0.073,36.5744 L2.032,38.5324 C2.081,38.5814 2.145,38.6054 2.209,38.6054 C2.272,38.6054 2.336,38.5814 2.385,38.5324 L4.344,36.5744 C4.391,36.5274 4.417,36.4634 4.417,36.3974" id="Fill-5" fill="#FEFEFE"></path>
                    <path d="M5.9683,37.7627 C5.8703,37.6647 5.7123,37.6647 5.6143,37.7627 L3.6563,39.7207 C3.6093,39.7677 3.5833,39.8307 3.5833,39.8977 C3.5833,39.9637 3.6093,40.0277 3.6563,40.0747 L5.6143,42.0327 C5.6633,42.0807 5.7273,42.1057 5.7913,42.1057 C5.8553,42.1057 5.9193,42.0807 5.9683,42.0327 L7.9263,40.0747 C7.9733,40.0277 8.0003,39.9637 8.0003,39.8977 C8.0003,39.8307 7.9733,39.7677 7.9263,39.7207 L5.9683,37.7627 Z" id="Fill-7" fill="#FEFEFE"></path>
                    <g id="Group-11" transform="translate(4.000000, 13.681600)">
                        <mask id="mask-10" fill="white">
                            <use xlink:href="#path-9"></use>
                        </mask>
                        <g id="Clip-10"></g>
                        <path d="M40.0005,18.2734 L30.1265,20.4104 C29.6555,20.5094 29.2125,20.2744 28.9185,19.7954 L25.3135,13.8244 C25.1455,13.5444 24.8655,13.3504 24.5445,13.2894 C24.2225,13.2264 23.8935,13.3054 23.6335,13.5024 L17.2985,18.0974 C16.9965,18.3164 16.8185,18.6694 16.8225,19.0434 C16.8275,19.4164 17.0125,19.7644 17.3205,19.9764 L20.5085,22.1704 C20.5215,22.1804 20.5585,22.2094 20.6145,22.3554 L23.2235,28.6704 C23.2675,28.7984 23.2755,28.9094 23.2465,29.0204 C23.1925,29.2224 23.0885,29.3544 22.8935,29.4694 C22.6935,29.5864 22.5305,29.6104 22.3285,29.5574 C22.2125,29.5274 22.0395,29.4504 21.8415,29.1354 L19.5215,23.6004 C19.4345,23.3924 19.2875,23.2144 19.1005,23.0884 L15.7645,20.8554 C15.4125,20.6214 14.9595,20.5984 14.5845,20.7954 C14.2105,20.9954 13.9765,21.3844 13.9755,21.8084 L13.9545,29.7684 C13.9535,30.2824 13.5345,30.6994 13.0175,30.6994 C12.7685,30.6994 12.5345,30.6014 12.3585,30.4244 C12.1835,30.2484 12.0865,30.0134 12.0865,29.7634 L12.1205,16.6524 C12.1255,16.6124 12.1305,16.5604 12.1315,16.5364 C12.1465,16.2904 12.1745,16.0934 12.2195,15.9204 C12.3845,15.2934 12.7055,14.7854 13.1335,14.4224 L21.0745,8.7144 C21.4115,8.4414 22.5355,7.9064 23.1775,7.8104 C23.8565,7.7114 24.5435,7.7444 25.0955,7.8934 L31.9365,9.9244 C32.4705,10.0834 33.0425,9.8354 33.2925,9.3364 L36.5035,2.9154 C36.6195,2.6824 36.8195,2.5084 37.0665,2.4264 C37.3145,2.3454 37.5785,2.3634 37.8105,2.4794 C38.0425,2.5954 38.2155,2.7954 38.2985,3.0434 C38.3805,3.2904 38.3615,3.5534 38.2455,3.7864 L34.2385,11.8004 C34.0305,12.2154 33.5545,12.4394 33.0895,12.2974 L28.9935,11.0834 C28.5515,10.9504 28.0745,11.0964 27.7805,11.4524 C27.4865,11.8064 27.4335,12.3024 27.6445,12.7114 L30.0575,17.3944 C30.2955,17.8574 30.8125,18.1044 31.3225,17.9924 L39.5525,16.2134 C40.1255,16.0854 40.6865,16.4534 40.8095,17.0204 C40.9315,17.5874 40.5685,18.1504 40.0005,18.2734 M5.4835,20.0674 C4.2225,20.0674 3.1965,19.0424 3.1965,17.7814 C3.1965,16.5204 4.2225,15.4954 5.4835,15.4954 C6.7445,15.4954 7.7705,16.5204 7.7705,17.7814 C7.7705,19.0424 6.7445,20.0674 5.4835,20.0674 M39.0685,13.9644 L31.6985,15.5574 L30.9235,14.0544 L32.4305,14.5024 C32.7345,14.5924 33.0495,14.6394 33.3665,14.6394 C34.6145,14.6394 35.7365,13.9464 36.2955,12.8304 L40.3025,4.8154 C40.6935,4.0344 40.7565,3.1464 40.4805,2.3164 C40.2045,1.4864 39.6215,0.8134 38.8395,0.4224 C38.0575,0.0314 37.1705,-0.0306 36.3405,0.2454 C35.5105,0.5214 34.8375,1.1044 34.4465,1.8854 L31.6665,7.4454 L25.7245,5.6814 C24.8515,5.4444 23.8285,5.3934 22.8435,5.5354 C21.7945,5.6904 20.2805,6.3984 19.6795,6.8874 L11.7245,12.6074 C10.8635,13.3294 10.2815,14.2474 9.9955,15.3364 C9.9105,15.6614 9.8595,16.0004 9.8405,16.3524 C9.8385,16.3644 9.8365,16.3854 9.8345,16.4024 C9.2455,14.5494 7.5285,13.1944 5.4835,13.1944 C2.9545,13.1944 0.8965,15.2524 0.8965,17.7814 C0.8965,20.3104 2.9545,22.3684 5.4835,22.3684 C7.5035,22.3684 9.2045,21.0454 9.8135,19.2274 L9.7875,29.7574 C9.7845,30.6224 10.1195,31.4344 10.7285,32.0474 C11.3385,32.6604 12.1495,32.9984 13.0215,33.0004 C14.7995,33.0004 16.2505,31.5524 16.2545,29.7744 L16.2695,23.9614 L17.5335,24.8084 L19.7525,30.1024 C19.7725,30.1494 19.7955,30.1954 19.8205,30.2394 C20.2965,31.0524 20.9435,31.5714 21.7415,31.7814 C22.5295,31.9914 23.3275,31.8784 24.0585,31.4534 C24.7875,31.0204 25.2625,30.3984 25.4705,29.6054 C25.6155,29.0554 25.5885,28.4704 25.3715,27.8534 L22.7545,21.5134 C22.5745,21.0334 22.2925,20.6414 21.8645,20.3134 L19.9665,19.0054 L23.9955,16.0904 L26.9545,20.9924 C27.7565,22.2984 29.1265,22.9654 30.6025,22.6604 L40.4875,20.5214 C42.2945,20.1294 43.4475,18.3414 43.0575,16.5344 C42.6665,14.7314 40.8795,13.5724 39.0685,13.9644" id="Fill-9" fill="#FEFEFE" mask="url(#mask-10)"></path>
                    </g>
                    <g id="Group-14" transform="translate(48.000000, 0.681600)">
                        <mask id="mask-12" fill="white">
                            <use xlink:href="#path-11"></use>
                        </mask>
                        <g id="Clip-13"></g>
                        <path d="M35.6655,43.6992 L13.3455,43.6992 L13.3455,27.2542 C13.3455,26.6312 12.8475,26.1292 12.2285,26.1102 C11.8305,25.9022 11.3295,25.9392 10.9625,26.2422 L8.1595,28.5592 L2.8665,22.0422 C3.3115,22.1252 3.8915,22.4212 4.4545,22.7082 C5.3835,23.1822 6.3675,23.6672 7.3925,23.6662 C8.9745,23.6522 11.2855,22.0132 12.0095,21.4692 C12.0725,21.4792 12.1285,21.5062 12.1945,21.5062 C12.8295,21.5062 13.3445,20.9902 13.3445,20.3552 L13.3445,2.6192 L35.6655,2.6192 L35.6655,43.6992 Z M36.8155,0.3182 L12.1945,0.3182 C11.5595,0.3182 11.0445,0.8342 11.0445,1.4692 L11.0445,19.3012 C11.0155,19.3212 10.9805,19.3272 10.9535,19.3502 L10.5815,19.6662 C9.4895,20.4832 7.9395,21.3612 7.3745,21.3652 C6.8735,21.3342 6.1835,21.0082 5.4985,20.6592 C4.7325,20.2682 3.9395,19.8632 3.0985,19.7502 C1.7085,19.5612 0.5395,20.7412 0.3175,20.9792 C-0.0735,21.3992 -0.0955,22.0432 0.2665,22.4882 L7.1055,30.9092 C7.2985,31.1472 7.5795,31.2992 7.8845,31.3292 C7.9225,31.3332 7.9605,31.3352 7.9985,31.3352 C8.2645,31.3352 8.5235,31.2422 8.7305,31.0712 L11.0455,29.1582 L11.0455,44.8492 C11.0455,45.4842 11.5605,46.0002 12.1955,46.0002 L36.8155,46.0002 C37.4505,46.0002 37.9655,45.4842 37.9655,44.8492 L37.9655,1.4692 C37.9655,0.8342 37.4505,0.3182 36.8155,0.3182 Z" id="Fill-12" fill="#FEFEFE" mask="url(#mask-12)"></path>
                    </g>
                </g>
                <g id="Page-1" opacity="0.2" transform="translate(134.083955, 155.500000) rotate(-41.000000) translate(-134.083955, -155.500000) translate(111.083955, 126.500000)">
                    <polygon id="Fill-1" fill="#FEFEFE" points="28.206 19.3254 30.206 19.3254 30.206 17.3254 28.206 17.3254"></polygon>
                    <polygon id="Fill-2" fill="#FEFEFE" points="22.206 19.3254 24.206 19.3254 24.206 17.3254 22.206 17.3254"></polygon>
                    <polygon id="Fill-3" fill="#FEFEFE" points="16.206 19.3254 18.206 19.3254 18.206 17.3254 16.206 17.3254"></polygon>
                    <g id="Group-6" transform="translate(0.000000, 0.512400)">
                        <mask id="mask-14" fill="white">
                            <use xlink:href="#path-13"></use>
                        </mask>
                        <g id="Clip-5"></g>
                        <path d="M4.6138,22.109 L22.9728,3.751 L41.3318,22.109 L4.6138,22.109 Z M39.1888,46.433 L32.5098,46.433 L28.3418,43.517 L28.4608,43.398 C28.8828,43.47 29.3068,43.505 29.7298,43.505 C31.0398,43.505 32.3338,43.163 33.4908,42.495 C35.8668,41.124 37.3088,38.563 37.2548,35.813 C37.2468,35.416 37.0348,35.06 36.6888,34.865 C36.5168,34.768 36.3288,34.719 36.1408,34.719 C35.9498,34.719 35.7598,34.769 35.5858,34.87 L32.4868,36.659 L30.5118,35.507 L30.5018,33.222 L33.6018,31.432 C33.9458,31.234 34.1538,30.878 34.1568,30.48 C34.1608,30.083 33.9608,29.722 33.6198,29.516 C32.4168,28.79 31.0648,28.426 29.7138,28.426 C28.3938,28.426 27.0738,28.773 25.8938,29.467 C23.2348,31.033 21.7978,34.17 22.2958,37.215 L21.4398,38.072 L16.6228,33.255 L16.6228,31.6 C16.6228,31.321 16.4768,31.063 16.2378,30.92 L12.2688,28.538 C12.1418,28.463 12.0008,28.425 11.8608,28.425 C11.6558,28.425 11.4518,28.505 11.2998,28.658 L8.9178,31.039 C8.6598,31.297 8.6118,31.696 8.7988,32.008 L11.1798,35.977 C11.3228,36.216 11.5818,36.363 11.8608,36.363 L13.5158,36.363 L18.3328,41.179 L13.0778,46.433 L6.7568,46.433 L6.7568,24.812 L39.1888,24.812 L39.1888,46.433 Z M32.4978,55.413 C31.4628,55.413 30.4888,54.905 29.8938,54.055 L26.4528,49.136 L24.5618,46.433 L24.4168,46.226 C24.2688,46.014 24.0258,45.887 23.7668,45.887 L22.5088,45.887 L21.7148,45.093 L25.3538,41.454 L26.1478,42.248 L26.1478,43.506 C26.1478,43.765 26.2748,44.008 26.4868,44.157 L29.7408,46.433 L33.6048,49.136 L34.3158,49.633 C35.1648,50.228 35.6728,51.202 35.6728,52.238 C35.6728,53.988 34.2488,55.413 32.4978,55.413 Z M27.8278,42.617 L27.7538,42.691 L27.6348,42.81 L27.1478,43.296 L27.1478,42.287 C27.3668,42.413 27.5938,42.523 27.8278,42.617 Z M26.6988,30.836 C27.6308,30.287 28.6718,30.013 29.7138,30.013 C30.5098,30.013 31.3068,30.173 32.0538,30.493 L29.3098,32.078 C29.0628,32.22 28.9118,32.484 28.9128,32.768 L28.9268,35.968 C28.9278,36.25 29.0778,36.508 29.3208,36.65 L32.0848,38.262 C32.2078,38.335 32.3458,38.371 32.4838,38.371 C32.6208,38.371 32.7588,38.335 32.8818,38.264 L35.6258,36.68 C35.4028,38.525 34.3288,40.178 32.6978,41.12 C31.7848,41.647 30.7638,41.917 29.7308,41.917 C29.2918,41.917 28.8508,41.868 28.4138,41.769 C28.0708,41.651 27.7428,41.491 27.4388,41.294 L25.9148,39.77 C25.7598,39.615 25.5568,39.538 25.3538,39.538 C25.1508,39.538 24.9478,39.615 24.7928,39.77 L23.9648,40.598 L22.5618,39.195 L23.7168,38.04 C23.9098,37.847 23.9898,37.569 23.9298,37.303 C23.3618,34.79 24.4998,32.13 26.6988,30.836 Z M15.2678,34.146 L23.2048,42.084 L22.3428,42.945 L14.4058,35.007 C14.2578,34.859 14.0548,34.775 13.8448,34.775 L12.3098,34.775 L10.4788,31.723 L11.9838,30.218 L15.0358,32.049 L15.0358,33.585 C15.0358,33.796 15.1188,33.997 15.2678,34.146 Z M20.4778,49.136 L15.0158,54.598 C14.4738,55.14 13.7628,55.411 13.0518,55.411 C12.3398,55.411 11.6288,55.14 11.0868,54.598 C10.0038,53.515 10.0038,51.753 11.0868,50.67 L12.6198,49.136 L15.3228,46.433 L19.4548,42.301 L20.8588,43.705 L20.0308,44.533 C19.7208,44.842 19.7208,45.345 20.0308,45.655 L20.8098,46.433 L21.6178,47.243 C21.7588,47.382 21.9458,47.462 22.1428,47.471 L20.4778,49.136 Z M45.5498,22.505 L23.9278,0.883 C23.4008,0.356 22.5448,0.356 22.0178,0.883 L0.3958,22.505 C0.0098,22.892 -0.1062,23.473 0.1028,23.978 C0.3118,24.483 0.8048,24.812 1.3508,24.812 L4.0538,24.812 L4.0538,47.785 C4.0538,48.531 4.6588,49.136 5.4058,49.136 L10.3758,49.136 L9.9638,49.547 C8.2618,51.25 8.2618,54.019 9.9638,55.721 C10.8158,56.572 11.9328,56.998 13.0518,56.998 C14.1688,56.998 15.2868,56.572 16.1378,55.721 L22.7228,49.136 L24.5158,49.136 L28.5938,54.964 C29.4848,56.239 30.9448,57 32.4978,57 C35.1238,57 37.2598,54.864 37.2598,52.238 C37.2598,51.088 36.8418,49.991 36.1088,49.136 L40.5398,49.136 C41.2868,49.136 41.8918,48.531 41.8918,47.785 L41.8918,24.812 L44.5938,24.812 C45.1408,24.812 45.6338,24.483 45.8428,23.978 C46.0518,23.473 45.9368,22.892 45.5498,22.505 Z" id="Fill-4" fill="#FEFEFE" mask="url(#mask-14)"></path>
                    </g>
                </g>
                <g id="Page-1" opacity="0.2" transform="translate(27.000000, 403.000000)" fill="#FEFEFE">
                    <path d="M8.7797,10.0335 L16.3047,10.0335 C16.9977,10.0335 17.5597,9.4725 17.5597,8.7795 C17.5597,8.0875 16.9977,7.5255 16.3047,7.5255 L8.7797,7.5255 C8.0867,7.5255 7.5257,8.0875 7.5257,8.7795 C7.5257,9.4725 8.0867,10.0335 8.7797,10.0335" id="Fill-1"></path>
                    <path d="M40.1362,18.2943 L38.1472,16.3053 L40.1362,14.3163 L42.1252,16.3053 L40.1362,18.2943 Z M24.4442,33.9863 L21.7922,34.6493 L22.4542,31.9973 L36.3732,18.0783 L38.3622,20.0673 L24.4442,33.9863 Z M32.6112,42.6453 L2.5092,42.6453 L2.5092,2.5083 L25.0852,2.5083 L25.0852,8.7793 C25.0852,9.4733 25.6462,10.0333 26.3392,10.0333 L32.6112,10.0333 L32.6112,18.2943 L20.4352,30.4693 C20.2742,30.6303 20.1602,30.8313 20.1052,31.0523 L19.0892,35.1193 L17.5592,35.1193 C16.8682,35.1193 16.3052,34.5563 16.3052,33.8643 C16.3052,33.1723 15.7442,32.6103 15.0512,32.6103 C14.3582,32.6103 13.7972,33.1723 13.7972,33.8643 C13.7972,34.5563 13.2342,35.1193 12.5422,35.1193 C11.8512,35.1193 11.2882,34.5563 11.2882,33.8643 L11.2882,31.3573 C11.2882,30.6633 10.7272,30.1023 10.0342,30.1023 C9.3412,30.1023 8.7802,30.6633 8.7802,31.3573 L8.7802,33.8643 C8.7802,34.5563 8.2172,35.1193 7.5252,35.1193 C6.8322,35.1193 6.2712,35.6803 6.2712,36.3733 C6.2712,37.0653 6.8322,37.6273 7.5252,37.6273 C8.4882,37.6273 9.3672,37.2643 10.0342,36.6663 C10.7002,37.2643 11.5792,37.6273 12.5422,37.6273 C13.5052,37.6273 14.3852,37.2643 15.0512,36.6663 C15.7172,37.2643 16.5962,37.6273 17.5592,37.6273 L20.0682,37.6273 C20.1662,37.6273 20.2602,37.6133 20.3512,37.5923 C20.3582,37.5913 20.3652,37.5913 20.3722,37.5903 L25.3892,36.3353 C25.6092,36.2803 25.8112,36.1663 25.9712,36.0053 L32.6112,29.3673 L32.6112,42.6453 Z M27.5942,4.2823 L30.8362,7.5253 L27.5942,7.5253 L27.5942,4.2823 Z M41.0232,11.6553 C40.5332,11.1653 39.7392,11.1653 39.2492,11.6553 L35.1192,15.7863 L35.1192,8.7793 C35.1192,8.1433 34.6082,7.7493 34.1992,7.3413 C33.5672,6.7083 29.4112,2.5533 27.9652,1.1073 C27.5162,0.6573 27.0342,0.0003 26.3392,0.0003 L1.2542,0.0003 C0.5612,0.0003 0.0002,0.5623 0.0002,1.2543 L0.0002,43.8983 C0.0002,44.5923 0.5612,45.1523 1.2542,45.1523 L33.8652,45.1523 C34.5572,45.1523 35.1192,44.5923 35.1192,43.8983 L35.1192,26.8583 L40.1362,21.8413 L40.8702,22.5763 L36.7402,26.7063 C36.2502,27.1963 36.2502,27.9903 36.7402,28.4803 C36.9852,28.7253 37.3062,28.8483 37.6272,28.8483 C37.9482,28.8483 38.2702,28.7253 38.5142,28.4813 L43.5322,23.4633 C44.0222,22.9743 44.0222,22.1803 43.5322,21.6903 L41.9092,20.0673 L44.7852,17.1923 C45.2752,16.7023 45.2752,15.9083 44.7852,15.4183 L41.0232,11.6553 Z" id="Fill-3"></path>
                    <path d="M8.7797,15.0511 L26.3397,15.0511 C27.0317,15.0511 27.5937,14.4891 27.5937,13.7971 C27.5937,13.1041 27.0317,12.5421 26.3397,12.5421 L8.7797,12.5421 C8.0867,12.5421 7.5257,13.1041 7.5257,13.7971 C7.5257,14.4891 8.0867,15.0511 8.7797,15.0511" id="Fill-5"></path>
                    <path d="M8.7797,20.0677 L26.3397,20.0677 C27.0317,20.0677 27.5937,19.5057 27.5937,18.8137 C27.5937,18.1217 27.0317,17.5597 26.3397,17.5597 L8.7797,17.5597 C8.0867,17.5597 7.5257,18.1217 7.5257,18.8137 C7.5257,19.5057 8.0867,20.0677 8.7797,20.0677" id="Fill-7"></path>
                    <path d="M8.7797,25.0853 L21.3217,25.0853 C22.0147,25.0853 22.5767,24.5233 22.5767,23.8303 C22.5767,23.1383 22.0147,22.5763 21.3217,22.5763 L8.7797,22.5763 C8.0867,22.5763 7.5257,23.1383 7.5257,23.8303 C7.5257,24.5233 8.0867,25.0853 8.7797,25.0853" id="Fill-9"></path>
                </g>
                <g id="Page-1" opacity="0.2" transform="translate(15.000000, 511.000000)">
                    <g id="Group-3" transform="translate(0.000000, 0.743200)">
                        <mask id="mask-16" fill="white">
                            <use xlink:href="#path-15"></use>
                        </mask>
                        <g id="Clip-2"></g>
                        <path d="M11.2189,7.5576 L11.2189,8.8576 L3.3679,8.8576 C3.0039,8.8576 2.7189,8.5716 2.7189,8.2066 C2.7189,7.8426 3.0039,7.5576 3.3679,7.5576 L11.2189,7.5576 Z M25.9179,8.8576 L25.9179,7.5576 L33.7689,7.5576 C34.1329,7.5576 34.4179,7.8426 34.4179,8.2066 C34.4179,8.5716 34.1329,8.8576 33.7689,8.8576 L25.9179,8.8576 Z M16.8189,33.4566 L20.3189,33.4566 L20.3189,23.5576 L16.8189,23.5576 L16.8189,33.4566 Z M15.7189,21.0576 L21.5189,21.0576 L21.5189,16.8576 L15.7189,16.8576 L15.7189,21.0576 Z M13.7189,14.3576 L23.4179,14.3576 L23.4179,2.7566 L13.7189,2.7566 L13.7189,14.3576 Z M19.8189,45.4466 L19.8189,35.9566 L20.5689,35.9566 C21.8089,35.9566 22.8189,34.9476 22.8189,33.7066 L22.8189,23.5496 C23.4729,23.4856 23.9179,22.9926 23.9179,22.3076 L23.9179,16.8576 L24.6679,16.8576 C25.4049,16.8576 25.9179,16.3436 25.9179,15.6076 L25.9179,11.3576 L33.7689,11.3576 C35.5049,11.3576 36.9179,9.9446 36.9179,8.2066 C36.9179,6.4706 35.5049,5.0576 33.7689,5.0576 L25.9179,5.0576 L25.9179,2.4076 C25.9179,1.2416 24.8879,0.2566 23.6679,0.2566 L13.4689,0.2566 C12.2069,0.2566 11.2189,1.2016 11.2189,2.4076 L11.2189,5.0576 L3.3679,5.0576 C1.6319,5.0576 0.2189,6.4706 0.2189,8.2066 C0.2189,9.9446 1.6319,11.3576 3.3679,11.3576 L11.2189,11.3576 L11.2189,15.6076 C11.2189,16.3436 11.7329,16.8576 12.4689,16.8576 L13.2189,16.8576 L13.2189,22.3076 C13.2189,22.9926 13.6639,23.4856 14.3189,23.5496 L14.3189,33.7066 C14.3189,34.9476 15.3279,35.9566 16.5689,35.9566 L17.3189,35.9566 L17.3189,45.4466 L15.7909,46.9726 C15.7439,47.0196 15.7179,47.0826 15.7179,47.1496 C15.7179,47.2156 15.7439,47.2796 15.7909,47.3266 L18.3919,49.9266 C18.4409,49.9756 18.5039,49.9996 18.5689,49.9996 C18.6329,49.9996 18.6969,49.9756 18.7449,49.9266 L21.3459,47.3266 C21.3929,47.2796 21.4189,47.2156 21.4189,47.1496 C21.4189,47.0826 21.3929,47.0196 21.3459,46.9726 L19.8189,45.4466 Z" id="Fill-1" fill="#FEFEFE" mask="url(#mask-16)"></path>
                    </g>
                    <path d="M10.0099,39.0342 C9.7409,38.7592 9.3379,38.6512 8.9589,38.7522 C8.5819,38.8572 8.2939,39.1602 8.2089,39.5402 L7.0029,44.8532 L1.8069,39.7022 C1.6069,39.5042 1.3419,39.3942 1.0599,39.3942 L1.0539,39.3942 C0.7709,39.3962 0.5049,39.5082 0.3059,39.7102 C-0.1051,40.1262 -0.1011,40.8012 0.3149,41.2132 L6.8709,47.7112 C7.0679,47.9072 7.3399,48.0192 7.6179,48.0192 C7.7219,48.0192 7.8219,48.0052 7.9159,47.9772 C8.2879,47.8682 8.5709,47.5662 8.6539,47.1922 L9.8479,41.9262 L13.2519,45.4502 C13.4509,45.6552 13.7159,45.7702 13.9979,45.7762 L14.0179,45.7762 C14.2929,45.7762 14.5549,45.6702 14.7549,45.4752 C15.1759,45.0672 15.1879,44.3942 14.7809,43.9742 L10.0099,39.0342 Z" id="Fill-4" fill="#FEFEFE"></path>
                    <path d="M5.091,37.7588 C5.288,37.9348 5.541,38.0308 5.803,38.0308 C5.902,38.0308 5.996,38.0188 6.079,37.9938 C6.428,37.9018 6.702,37.6398 6.816,37.2958 L7.205,36.0888 L7.612,36.5108 C7.81,36.7158 8.073,36.8308 8.357,36.8358 L8.375,36.8358 C8.653,36.8358 8.915,36.7298 9.114,36.5348 C9.534,36.1268 9.545,35.4518 9.139,35.0318 L7.5,33.3408 C7.24,33.0728 6.866,32.9608 6.495,33.0458 C6.134,33.1308 5.839,33.4028 5.726,33.7538 L5.296,35.0828 L2.951,32.9648 C2.737,32.7738 2.473,32.6648 2.176,32.6938 C1.896,32.7088 1.638,32.8338 1.452,33.0418 C1.061,33.4768 1.094,34.1498 1.527,34.5428 L5.089,37.7578 L5.091,37.7588 Z" id="Fill-6" fill="#FEFEFE"></path>
                    <path d="M36.8302,39.709 C36.6312,39.509 36.3652,39.397 36.0822,39.397 L36.0762,39.397 C35.7942,39.397 35.5292,39.506 35.3302,39.704 L30.1302,44.855 L28.9242,39.543 C28.8392,39.163 28.5522,38.86 28.1762,38.754 C27.8032,38.647 27.4002,38.754 27.1272,39.035 L22.3562,43.975 C21.9512,44.396 21.9622,45.068 22.3822,45.476 C22.5822,45.67 22.8442,45.776 23.1202,45.776 L23.1392,45.776 C23.4222,45.771 23.6862,45.655 23.8852,45.45 L27.2892,41.925 L28.4842,47.189 C28.5652,47.565 28.8482,47.867 29.2202,47.977 C29.3142,48.005 29.4152,48.02 29.5182,48.02 C29.7972,48.02 30.0692,47.907 30.2652,47.712 L36.8222,41.213 C37.2382,40.801 37.2422,40.126 36.8302,39.709" id="Fill-8" fill="#FEFEFE"></path>
                    <path d="M34.1876,32.9659 L31.8446,35.0829 L31.4166,33.7539 C31.2996,33.3969 31.0116,33.1319 30.6436,33.0449 C30.2756,32.9629 29.9026,33.0729 29.6406,33.3409 L28.0016,35.0319 C27.5956,35.4519 27.6066,36.1269 28.0266,36.5349 C28.2326,36.7349 28.5186,36.8389 28.7856,36.8369 C29.0676,36.8319 29.3316,36.7169 29.5276,36.5139 L29.9366,36.0909 L30.3266,37.2979 C30.4386,37.6439 30.7136,37.9039 31.0616,37.9959 C31.1526,38.0209 31.2456,38.0329 31.3376,38.0329 C31.5986,38.0329 31.8516,37.9369 32.0516,37.7599 L35.6146,34.5419 C36.0476,34.1489 36.0826,33.4759 35.6896,33.0429 C35.3006,32.6079 34.6276,32.5739 34.1876,32.9659" id="Fill-10" fill="#FEFEFE"></path>
                </g>
                <g id="Page-1" opacity="0.2" transform="translate(111.000000, 233.000000)">
                    <path d="M11.1172,6.9335 L13.8342,6.9335 C13.9712,6.9335 14.0842,6.8215 14.0842,6.6835 L14.0842,1.2495 C14.0842,1.1115 13.9712,0.9995 13.8342,0.9995 L11.1172,0.9995 C10.9792,0.9995 10.8672,1.1115 10.8672,1.2495 L10.8672,6.6835 C10.8672,6.8215 10.9792,6.9335 11.1172,6.9335" id="Fill-1" fill="#FEFEFE"></path>
                    <path d="M24.7012,6.9335 L27.4182,6.9335 C27.5552,6.9335 27.6682,6.8215 27.6682,6.6835 L27.6682,1.2495 C27.6682,1.1115 27.5552,0.9995 27.4182,0.9995 L24.7012,0.9995 C24.5632,0.9995 24.4512,1.1115 24.4512,1.2495 L24.4512,6.6835 C24.4512,6.8215 24.5632,6.9335 24.7012,6.9335" id="Fill-3" fill="#FEFEFE"></path>
                    <path d="M38.2842,6.9335 L41.0012,6.9335 C41.1382,6.9335 41.2512,6.8215 41.2512,6.6835 L41.2512,1.2495 C41.2512,1.1115 41.1382,0.9995 41.0012,0.9995 L38.2842,0.9995 C38.1462,0.9995 38.0342,1.1115 38.0342,1.2495 L38.0342,6.6835 C38.0342,6.8215 38.1462,6.9335 38.2842,6.9335" id="Fill-5" fill="#FEFEFE"></path>
                    <mask id="mask-18" fill="white">
                        <use xlink:href="#path-17"></use>
                    </mask>
                    <g id="Clip-8"></g>
                    <polygon id="Fill-7" fill="#FEFEFE" mask="url(#mask-18)" points="0.25 20.2675 2.967 20.2675 2.967 1.2495 0.25 1.2495"></polygon>
                    <path d="M2.9668,22.7343 L0.2498,22.7343 C0.1128,22.7343 -0.0002,22.8463 -0.0002,22.9843 L-0.0002,25.7013 C-0.0002,25.8393 0.1128,25.9513 0.2498,25.9513 L2.9668,25.9513 C3.1048,25.9513 3.2168,25.8393 3.2168,25.7013 L3.2168,22.9843 C3.2168,22.8463 3.1048,22.7343 2.9668,22.7343" id="Fill-9" fill="#FEFEFE" mask="url(#mask-18)"></path>
                    <path d="M2.9668,28.1679 L0.2498,28.1679 C0.1128,28.1679 -0.0002,28.2799 -0.0002,28.4179 L-0.0002,31.1339 C-0.0002,31.2719 0.1128,31.3839 0.2498,31.3839 L2.9668,31.3839 C3.1048,31.3839 3.2168,31.2719 3.2168,31.1339 L3.2168,28.4179 C3.2168,28.2799 3.1048,28.1679 2.9668,28.1679" id="Fill-10" fill="#FEFEFE" mask="url(#mask-18)"></path>
                    <polygon id="Fill-11" fill="#FEFEFE" mask="url(#mask-18)" points="51.868 25.7005 54.585 25.7005 54.585 1.2495 51.868 1.2495"></polygon>
                    <path d="M54.585,28.1679 L51.868,28.1679 C51.731,28.1679 51.618,28.2799 51.618,28.4179 L51.618,31.1339 C51.618,31.2719 51.731,31.3839 51.868,31.3839 L54.585,31.3839 C54.723,31.3839 54.835,31.2719 54.835,31.1339 L54.835,28.4179 C54.835,28.2799 54.723,28.1679 54.585,28.1679" id="Fill-12" fill="#FEFEFE" mask="url(#mask-18)"></path>
                    <path d="M54.585,33.601 L51.868,33.601 C51.731,33.601 51.618,33.713 51.618,33.851 L51.618,36.568 C51.618,36.706 51.731,36.818 51.868,36.818 L54.585,36.818 C54.723,36.818 54.835,36.706 54.835,36.568 L54.835,33.851 C54.835,33.713 54.723,33.601 54.585,33.601" id="Fill-13" fill="#FEFEFE" mask="url(#mask-18)"></path>
                    <path d="M24.415,49.7705 L26.743,49.7705 L26.743,38.1285 L24.415,38.1285 L24.415,49.7705 Z M40.714,21.8315 L39.104,21.8315 L38.263,20.1465 C37.975,19.5715 37.276,19.3395 36.7,19.6255 C36.126,19.9135 35.893,20.6125 36.18,21.1875 L36.502,21.8315 L34.448,21.8315 L33.606,20.1465 C33.317,19.5715 32.62,19.3395 32.044,19.6255 C31.47,19.9135 31.236,20.6125 31.523,21.1875 L31.845,21.8315 L29.792,21.8315 L28.949,20.1465 C28.661,19.5715 27.963,19.3395 27.388,19.6255 C26.812,19.9135 26.58,20.6125 26.867,21.1875 L27.188,21.8315 L25.135,21.8315 L24.293,20.1465 C24.005,19.5715 23.307,19.3395 22.73,19.6255 C22.156,19.9135 21.923,20.6125 22.21,21.1875 L22.531,21.8315 L20.479,21.8315 L19.636,20.1465 C19.349,19.5715 18.649,19.3395 18.074,19.6255 C17.5,19.9135 17.267,20.6125 17.554,21.1875 L17.875,21.8315 L15.822,21.8315 L14.979,20.1465 C14.691,19.5715 13.993,19.3395 13.418,19.6255 C12.843,19.9135 12.609,20.6125 12.897,21.1875 L13.218,21.8315 L10.445,21.8315 L10.445,12.5185 L40.714,12.5185 L40.714,21.8315 Z M46.534,16.0105 L43.042,16.0105 L43.042,11.3535 C43.042,10.7105 42.521,10.1895 41.878,10.1895 L9.281,10.1895 C8.638,10.1895 8.117,10.7105 8.117,11.3535 L8.117,16.0105 L6.953,16.0105 C6.31,16.0105 5.788,16.5315 5.788,17.1745 C5.788,17.8175 6.31,18.3385 6.953,18.3385 L8.117,18.3385 L8.117,22.9955 C8.117,23.6385 8.638,24.1595 9.281,24.1595 L41.878,24.1595 C42.521,24.1595 43.042,23.6385 43.042,22.9955 L43.042,18.3385 L45.37,18.3385 L45.37,28.8165 L25.579,28.8165 C24.937,28.8165 24.415,29.3375 24.415,29.9805 L24.415,35.8015 L23.251,35.8015 C22.608,35.8015 22.087,36.3225 22.087,36.9655 L22.087,50.9355 C22.087,51.5785 22.608,52.0995 23.251,52.0995 L27.907,52.0995 C28.551,52.0995 29.072,51.5785 29.072,50.9355 L29.072,36.9655 C29.072,36.3225 28.551,35.8015 27.907,35.8015 L26.743,35.8015 L26.743,31.1445 L46.534,31.1445 C47.178,31.1445 47.698,30.6235 47.698,29.9805 L47.698,17.1745 C47.698,16.5315 47.178,16.0105 46.534,16.0105 Z" id="Fill-14" fill="#FEFEFE" mask="url(#mask-18)"></path>
                </g>
                <g id="Page-1" opacity="0.2" transform="translate(19.000000, 232.000000)">
                    <g id="Group-3">
                        <mask id="mask-20" fill="white">
                            <use xlink:href="#path-19"></use>
                        </mask>
                        <g id="Clip-2"></g>
                        <path d="M29.6041909,23.7360553 L29.6034818,23.7360553 C28.6135909,23.5541605 28.3533545,23.1747395 28.1923909,22.4023974 C28.0314273,21.6286342 28.1845909,20.4420553 28.5504818,19.2263447 C28.5554455,19.2107132 28.5597,19.1943711 28.5632455,19.1787395 C29.1737727,16.6563711 30.2359909,12.4116868 29.5425,8.47892368 L35.9136818,14.7613974 C38.7365727,17.7392132 36.0923727,24.8878184 29.6041909,23.7360553 M27.1315909,17.4926605 C26.3771182,16.4290026 25.1433,14.7542921 24.0789545,14.1553184 C24.0782455,14.1553184 22.8203182,13.4071342 20.9525727,13.0497395 L19.3904455,11.48445 L17.9509909,12.9268184 C16.8107727,13.0611079 15.5961,13.4234763 14.3835545,14.1531868 C13.3199182,14.75145 12.4420636,16.42545 11.6875909,17.4876868 C11.1146455,14.9717132 10.5112091,11.5853447 11.0465727,8.69350263 C11.3621182,6.98752895 12.0449727,5.47979211 13.3270091,4.31879211 C16.8703364,1.69908158 21.8453182,1.11218684 25.4928818,4.31879211 L25.4928818,4.32092368 C26.7749182,5.48121316 27.4577727,6.98895 27.7726091,8.69563421 C28.3079727,11.5881868 27.7031182,14.9766868 27.1315909,17.4926605 M26.0878091,22.1167658 L26.0878091,22.1174763 C25.4822455,23.8142132 24.6710455,25.1038184 23.7371727,25.1542658 C22.8025909,25.2054237 16.0144636,25.2054237 15.0805909,25.1542658 C14.1460091,25.1038184 13.3348091,23.8142132 12.7292455,22.1174763 L12.7292455,22.1167658 C12.2286273,20.7106342 12.4151182,19.7180289 12.9391364,18.8305816 C13.8070636,16.4552921 15.2571545,15.7092395 15.2578636,15.7092395 C16.0563,15.3177395 16.8249545,15.0726079 17.5510636,14.92695 L18.5579727,15.9351868 C18.4679182,16.8460816 19.1791364,20.7312395 16.9689,20.7312395 C16.0711909,20.7312395 15.3415364,19.9993974 15.3415364,19.1005816 C15.3415364,18.6493974 14.9770636,18.2848974 14.5275,18.2848974 C14.0779364,18.2848974 13.7134636,18.6493974 13.7134636,19.1005816 C13.7134636,20.8982132 15.1734818,22.3618974 16.9689,22.3618974 C17.9410636,22.3618974 18.8132455,21.9298974 19.4103,21.2499237 C20.0066455,21.9298974 20.8788273,22.3618974 21.8509909,22.3618974 C23.6464091,22.3618974 25.1064273,20.8982132 25.1064273,19.1005816 C25.1057182,18.6493974 24.7419545,18.2841868 24.2923909,18.2841868 C23.8428273,18.2841868 23.4783545,18.6493974 23.4783545,19.0998711 C23.4783545,19.9986868 22.7487,20.7305289 21.8509909,20.7305289 C19.5748091,20.7305289 20.3704091,16.7423447 20.2583727,15.89895 L21.1872818,14.9681605 C22.4395364,15.25095 23.2060636,15.7092395 23.2060636,15.7092395 C24.3838636,16.1597132 25.3553182,17.9424237 25.8786273,18.8305816 C26.4012273,19.7180289 26.5884273,20.7106342 26.0878091,22.1167658 M10.6260818,22.4031079 C10.4651182,23.17545 10.2063,23.5548711 9.21782727,23.7360553 L9.21711818,23.7360553 C2.72539091,24.8885289 0.0819,17.7413447 2.90691818,14.7621079 L9.27668182,8.47750263 C8.58248182,12.4109763 9.64540909,16.6563711 10.2573545,19.17945 C10.2616091,19.1950816 10.2658636,19.2107132 10.2701182,19.2256342 C10.6345909,20.4413447 10.7870455,21.6286342 10.6260818,22.4031079 M37.1950091,13.52295 L37.1758636,13.5037658 L28.0675909,4.52200263 C28.0250455,4.47937105 27.9782455,4.44029211 27.9279,4.40689737 C27.5761909,3.90455526 27.1649182,3.43063421 26.6862818,2.99721316 C23.1755727,-0.520602632 16.5725182,-0.901444737 12.1343182,2.99721316 C11.6556818,3.42992368 11.2451182,3.90313421 10.8934091,4.40476579 C10.8416455,4.43887105 10.7927182,4.47866053 10.7487545,4.52271316 L1.64473636,13.5037658 C1.63906364,13.50945 1.63197273,13.5165553 1.62559091,13.52295 C-2.51479091,17.8678184 1.66246364,26.8886605 9.52840909,25.4924763 L9.53266364,25.4924763 C10.5019909,25.3155553 11.2550455,24.8061079 11.7514091,24.1389237 C12.5767909,25.3901605 13.7389909,26.8694763 14.9841545,26.9369763 C16.5306818,27.0208184 22.2863727,27.0208184 23.8329,26.9369763 C25.0780636,26.8694763 26.2409727,25.38945 27.0663545,24.1367921 C27.5634273,24.8053974 28.3179,25.3155553 29.2879364,25.4924763 C29.2893545,25.4924763 29.2907727,25.4924763 29.2921909,25.4924763 C37.1560091,26.8886605 41.3339727,17.8663974 37.1950091,13.52295" id="Fill-1" fill="#FEFEFE" mask="url(#mask-20)"></path>
                    </g>
                    <path d="M13.498395,8 C12.6849989,8 12,8.67970765 12,9.5 C12,10.3202923 12.6849989,11 13.498395,11 C14.3117911,11 15,10.3254514 15,9.5 C15,8.67454858 14.3117911,8 13.498395,8" id="Fill-4" fill="#FEFEFE"></path>
                    <path d="M24.4996786,8 C23.6852368,8 23,8.67970765 23,9.5 C23,10.3202923 23.6852368,11 24.4996786,11 C25.3141204,11 26,10.3202923 26,9.5 C26,8.67970765 25.3141204,8 24.4996786,8" id="Fill-6" fill="#FEFEFE"></path>
                </g>
                <g id="Page-1" opacity="0.2" transform="translate(40.000000, 619.000000)">
                    <g id="Group-3" transform="translate(45.000000, 0.140000)">
                        <mask id="mask-22" fill="white">
                            <use xlink:href="#path-21"></use>
                        </mask>
                        <g id="Clip-2"></g>
                        <path d="M42.7953,8.2878 L34.1293,8.2878 C33.4453,8.2878 32.8913,8.8418 32.8913,9.5258 L32.8913,19.4298 C32.8913,20.1138 33.4453,20.6678 34.1293,20.6678 L42.7953,20.6678 L42.7953,30.5718 L40.1943,30.5718 C39.6193,27.7498 37.1183,25.6198 34.1293,25.6198 C31.1403,25.6198 28.6393,27.7498 28.0643,30.5718 L20.3873,30.5718 C19.8123,27.7498 17.3113,25.6198 14.3213,25.6198 C11.3323,25.6198 8.8313,27.7498 8.2563,30.5718 L5.6553,30.5718 L5.6553,23.1438 L29.1773,23.1438 C29.8613,23.1438 30.4153,22.5898 30.4153,21.9058 L30.4153,5.8118 L42.7953,5.8118 L42.7953,8.2878 Z M35.3673,18.1918 L42.7953,18.1918 L42.7953,10.7638 L35.3673,10.7638 L35.3673,18.1918 Z M34.1293,35.5238 C32.0813,35.5238 30.4153,33.8578 30.4153,31.8098 C30.4153,29.7618 32.0813,28.0958 34.1293,28.0958 C36.1783,28.0958 37.8433,29.7618 37.8433,31.8098 C37.8433,33.8578 36.1783,35.5238 34.1293,35.5238 Z M14.3213,35.5238 C12.2743,35.5238 10.6073,33.8578 10.6073,31.8098 C10.6073,29.7618 12.2743,28.0958 14.3213,28.0958 C16.3693,28.0958 18.0353,29.7618 18.0353,31.8098 C18.0353,33.8578 16.3693,35.5238 14.3213,35.5238 Z M3.1793,20.6678 L3.1793,3.3358 L27.9403,3.3358 L27.9403,4.5738 L27.9403,20.6678 L4.4173,20.6678 L3.1793,20.6678 Z M44.0333,3.3358 L30.4153,3.3358 L30.4153,2.0978 C30.4153,1.4138 29.8613,0.8598 29.1773,0.8598 L1.9413,0.8598 C1.2573,0.8598 0.7033,1.4138 0.7033,2.0978 L0.7033,21.9058 C0.7033,22.5898 1.2573,23.1438 1.9413,23.1438 L3.1793,23.1438 L3.1793,31.8098 C3.1793,32.4938 3.7333,33.0478 4.4173,33.0478 L8.2563,33.0478 C8.8313,35.8708 11.3323,37.9998 14.3213,37.9998 C17.3113,37.9998 19.8123,35.8708 20.3873,33.0478 L28.0643,33.0478 C28.6393,35.8708 31.1403,37.9998 34.1293,37.9998 C37.1183,37.9998 39.6193,35.8708 40.1943,33.0478 L44.0333,33.0478 C44.7173,33.0478 45.2723,32.4938 45.2723,31.8098 L45.2723,4.5738 C45.2723,3.8908 44.7173,3.3358 44.0333,3.3358 Z" id="Fill-1" fill="#FEFEFE" mask="url(#mask-22)"></path>
                    </g>
                    <mask id="mask-24" fill="white">
                        <use xlink:href="#path-23"></use>
                    </mask>
                    <g id="Clip-5"></g>
                    <polygon id="Fill-4" fill="#FEFEFE" mask="url(#mask-24)" points="10.868 20.889 40.752 20.889 40.752 18.172 10.868 18.172"></polygon>
                    <polygon id="Fill-6" fill="#FEFEFE" mask="url(#mask-24)" points="16.3 13.543 40.751 13.543 40.751 10.826 16.3 10.826"></polygon>
                    <polygon id="Fill-7" fill="#FEFEFE" mask="url(#mask-24)" points="10.867 13.543 13.583 13.543 13.583 10.826 10.867 10.826"></polygon>
                    <polygon id="Fill-8" fill="#FEFEFE" mask="url(#mask-24)" points="5.434 13.543 8.151 13.543 8.151 10.826 5.434 10.826"></polygon>
                    <polygon id="Fill-9" fill="#FEFEFE" mask="url(#mask-24)" points="16.3 28.236 40.751 28.236 40.751 25.519 16.3 25.519"></polygon>
                    <polygon id="Fill-10" fill="#FEFEFE" mask="url(#mask-24)" points="10.868 28.236 13.584 28.236 13.584 25.519 10.868 25.519"></polygon>
                    <polygon id="Fill-11" fill="#FEFEFE" mask="url(#mask-24)" points="5.434 28.236 8.151 28.236 8.151 25.519 5.434 25.519"></polygon>
                    <polygon id="Fill-12" fill="#FEFEFE" mask="url(#mask-24)" points="0 20.889 2.717 20.889 2.717 18.172 0 18.172"></polygon>
                    <polygon id="Fill-13" fill="#FEFEFE" mask="url(#mask-24)" points="5.434 20.889 8.151 20.889 8.151 18.172 5.434 18.172"></polygon>
                </g>
                <g id="Page-1" opacity="0.2" transform="translate(129.000000, 426.000000)">
                    <mask id="mask-26" fill="white">
                        <use xlink:href="#path-25"></use>
                    </mask>
                    <g id="Clip-2"></g>
                    <path d="M1.958,34.8131 L4.66,34.8131 L4.66,24.7711 L1.958,24.7711 L1.958,34.8131 Z M5.639,22.8131 L0.979,22.8131 C0.439,22.8131 0,23.2531 0,23.7921 L0,35.7921 C0,36.3331 0.439,36.7711 0.979,36.7711 L5.639,36.7711 C6.179,36.7711 6.618,36.3331 6.618,35.7921 L6.618,23.7921 C6.618,23.2531 6.179,22.8131 5.639,22.8131 Z" id="Fill-1" fill="#FEFEFE" mask="url(#mask-26)"></path>
                    <path d="M11.858,34.8141 L14.56,34.8141 L14.56,20.5081 L11.858,20.5081 L11.858,34.8141 Z M15.539,36.7711 C16.079,36.7711 16.518,36.3331 16.518,35.7921 L16.518,19.5291 C16.518,18.9891 16.08,18.5501 15.539,18.5501 L10.879,18.5501 C10.339,18.5501 9.9,18.9891 9.9,19.5291 L9.9,35.7921 C9.9,36.3331 10.339,36.7711 10.879,36.7711 L15.539,36.7711 Z" id="Fill-3" fill="#FEFEFE" mask="url(#mask-26)"></path>
                    <path d="M22.151,34.8131 L24.853,34.8131 L24.853,17.3111 L22.151,17.3111 L22.151,34.8131 Z M25.832,36.7711 C26.372,36.7711 26.811,36.3331 26.811,35.7921 L26.811,16.3321 C26.811,15.7921 26.372,15.3531 25.832,15.3531 L21.172,15.3531 C20.632,15.3531 20.193,15.7921 20.193,16.3321 L20.193,35.7921 C20.193,36.3331 20.631,36.7711 21.172,36.7711 L25.832,36.7711 Z" id="Fill-4" fill="#FEFEFE" mask="url(#mask-26)"></path>
                    <path d="M32.051,34.8131 L34.753,34.8131 L34.753,14.1131 L32.051,14.1131 L32.051,34.8131 Z M35.732,12.1551 L31.073,12.1551 C30.533,12.1551 30.094,12.5941 30.094,13.1341 L30.094,35.7921 C30.094,36.3331 30.533,36.7711 31.073,36.7711 L35.732,36.7711 C36.272,36.7711 36.711,36.3331 36.711,35.7921 L36.711,13.1341 C36.711,12.5951 36.272,12.1551 35.732,12.1551 Z" id="Fill-5" fill="#FEFEFE" mask="url(#mask-26)"></path>
                    <path d="M35.4086,-0.0001 L29.3706,-0.0001 C28.8306,-0.0001 28.3916,0.4389 28.3916,0.9789 C28.3916,1.5189 28.8306,1.9579 29.3706,1.9579 L33.7216,1.9579 C30.6536,5.1429 21.1136,13.2359 0.8746,16.7859 C0.3426,16.8789 -0.0134,17.3879 0.0796,17.9189 C0.1616,18.3889 0.5666,18.7289 1.0426,18.7289 C1.0986,18.7289 1.1556,18.7249 1.2126,18.7149 C21.3706,15.1799 31.1226,7.4409 34.8166,3.6729 L34.8166,7.4029 C34.8166,7.9419 35.2556,8.3819 35.7956,8.3819 C36.3356,8.3819 36.7746,7.9429 36.7746,7.4029 L36.7746,1.3659 C36.7746,0.6129 36.1626,-0.0001 35.4086,-0.0001" id="Fill-6" fill="#FEFEFE" mask="url(#mask-26)"></path>
                    <polygon id="Fill-7" fill="#FEFEFE" mask="url(#mask-26)" points="2.733 41.8331 5.45 41.8331 5.45 39.1161 2.733 39.1161"></polygon>
                    <polygon id="Fill-8" fill="#FEFEFE" mask="url(#mask-26)" points="8.452 41.8331 11.169 41.8331 11.169 39.1161 8.452 39.1161"></polygon>
                    <polygon id="Fill-9" fill="#FEFEFE" mask="url(#mask-26)" points="25.606 41.8331 28.323 41.8331 28.323 39.1161 25.606 39.1161"></polygon>
                    <polygon id="Fill-10" fill="#FEFEFE" mask="url(#mask-26)" points="31.325 41.8331 34.042 41.8331 34.042 39.1161 31.325 39.1161"></polygon>
                    <polygon id="Fill-11" fill="#FEFEFE" mask="url(#mask-26)" points="14.17 41.8331 16.887 41.8331 16.887 39.1161 14.17 39.1161"></polygon>
                    <polygon id="Fill-12" fill="#FEFEFE" mask="url(#mask-26)" points="19.888 41.8331 22.605 41.8331 22.605 39.1161 19.888 39.1161"></polygon>
                </g>
                <g id="Page-1" opacity="0.2" transform="translate(1.000000, 2.000000)">
                    <path d="M18.5,19 C19.3273256,19 20,18.3273256 20,17.5 C20,16.6726744 19.3273256,16 18.5,16 C17.6726744,16 17,16.6726744 17,17.5 C17,18.3273256 17.6726744,19 18.5,19" id="Fill-1" fill="#FEFEFE"></path>
                    <path d="M20.6666667,34 L19.3333333,34 C19.1493333,34 19,34.1493333 19,34.3333333 L19,35.6666667 C19,35.8506667 19.1493333,36 19.3333333,36 L20.6666667,36 C20.8506667,36 21,35.8506667 21,35.6666667 L21,34.3333333 C21,34.1493333 20.8506667,34 20.6666667,34" id="Fill-3" fill="#FEFEFE"></path>
                    <path d="M16.6666667,34 L15.3333333,34 C15.1493333,34 15,34.1493333 15,34.3333333 L15,35.6666667 C15,35.8506667 15.1493333,36 15.3333333,36 L16.6666667,36 C16.8506667,36 17,35.8506667 17,35.6666667 L17,34.3333333 C17,34.1493333 16.8506667,34 16.6666667,34" id="Fill-5" fill="#FEFEFE"></path>
                    <path d="M12.6666667,34 L11.3333333,34 C11.1493333,34 11,34.1493333 11,34.3333333 L11,35.6666667 C11,35.8506667 11.1493333,36 11.3333333,36 L12.6666667,36 C12.8506667,36 13,35.8506667 13,35.6666667 L13,34.3333333 C13,34.1493333 12.8506667,34 12.6666667,34" id="Fill-7" fill="#FEFEFE"></path>
                    <g id="Group-11">
                        <mask id="mask-28" fill="white">
                            <use xlink:href="#path-27"></use>
                        </mask>
                        <g id="Clip-10"></g>
                        <path d="M24.7219244,29.2450094 L23.0229,29.2450094 L23.0229,4.53831132 C23.0229,4.06746226 22.6422659,3.68642453 22.1733878,3.68642453 L8.57987561,3.68642453 C8.11033902,3.68642453 7.73036341,4.06746226 7.73036341,4.53831132 L7.73036341,20.5458585 C7.24502195,20.4725566 6.73794878,20.4289717 6.20650976,20.4289717 C6.14658293,20.4289717 6.08994878,20.4349151 6.03068049,20.4362358 L6.03068049,1.98265094 L24.7219244,1.98265094 L24.7219244,29.2450094 Z M21.3238756,29.2450094 L9.3806561,29.2450094 C9.2799,28.5205755 9.17716829,27.8364245 9.08694878,27.2724623 C9.21009512,27.2552925 9.3141439,27.2354811 9.4293878,27.2176509 C10.3599,27.0697264 11.0335829,26.8861415 11.4280463,26.7468019 C11.8686073,26.5942547 12.204461,26.2198208 12.3045585,25.768783 C12.5765341,24.5477453 12.3322171,23.4171792 11.5986073,22.4999151 C11.079022,21.8494434 10.3342171,21.3369906 9.4293878,20.9843491 L9.4293878,5.39019811 L21.3238756,5.39019811 L21.3238756,29.2450094 Z M8.86436341,25.6367075 L7.73036341,25.7918962 L7.19563171,25.8651981 L7.46102195,27.5326509 C7.53872927,28.0193491 7.62894878,28.6103868 7.71916829,29.2450094 C7.79687561,29.7924623 7.87326585,30.3702925 7.9424122,30.948783 C7.97270488,31.2122736 8.00299756,31.4764245 8.02999756,31.7359528 C8.11231463,32.5323679 7.86997317,32.803783 7.78963171,32.8942547 C7.53609512,33.1795377 7.01980244,33.3413302 6.35599756,33.3492547 L6.27631463,33.3492547 L6.1551439,33.3492547 C5.46631463,33.3413302 4.9473878,33.1795377 4.69319268,32.8935943 C4.61350976,32.8044434 4.37116829,32.5323679 4.45348537,31.7352925 C4.48707073,31.4044434 4.5279,31.0518019 4.57268049,30.6872736 C4.68792439,29.7455755 4.8374122,28.6949151 5.02048537,27.5425566 L5.28719268,25.8671792 L4.3316561,25.7403868 L3.6099,25.6452925 C2.68004634,25.5218019 2.04192439,25.354066 1.68170488,25.2404811 C1.57304634,24.5781226 1.71002195,24.0174623 2.09855854,23.5314245 C2.55953415,22.9549151 3.3471439,22.5276509 4.3316561,22.2905755 C4.84926585,22.1657642 5.42285122,22.0984057 6.03068049,22.0865189 C6.08994878,22.0851981 6.14658293,22.0799151 6.20650976,22.0799151 C6.74650976,22.0799151 7.25555854,22.1320849 7.73036341,22.2199151 C8.38231463,22.3420849 8.95787561,22.5428396 9.4293878,22.8122736 C9.78763171,23.0163302 10.0925341,23.2553868 10.314461,23.5327453 C10.7029976,24.018783 10.8399732,24.578783 10.7306561,25.2404811 C10.4632902,25.3250094 10.0299732,25.4412358 9.4293878,25.5468962 C9.25421707,25.577934 9.06850976,25.6083113 8.86436341,25.6367075 Z M25.5714366,0.278877358 L5.18116829,0.278877358 C4.71229024,0.278877358 4.3316561,0.659915094 4.3316561,1.13076415 L4.3316561,20.6059528 C2.81175366,20.8985 1.57304634,21.5502925 0.813753659,22.4985943 C0.0801439024,23.4171792 -0.164173171,24.5477453 0.108460976,25.7727453 C0.210534146,26.2204811 0.545070732,26.5935943 0.981021951,26.7461415 C1.43672927,26.9052925 2.23421707,27.1285 3.39455854,27.2817075 C3.19568049,28.5364245 2.96585122,30.1074623 2.81570488,31.5655755 C2.7116561,32.5746321 2.92963171,33.3908585 3.46436341,33.9924623 C4.03794878,34.6376509 4.95858293,34.9856698 6.1353878,35.0001981 L6.27631463,35.0001981 L6.35599756,35.0001981 C7.5249,34.9856698 8.44553415,34.6376509 9.01846098,33.9924623 C9.55385122,33.3921792 9.77182683,32.5752925 9.66777805,31.5662358 C9.64604634,31.3621792 9.6236561,31.1561415 9.59994878,30.948783 L25.5714366,30.948783 C26.0409732,30.948783 26.4209488,30.5670849 26.4209488,30.0968962 L26.4209488,1.13076415 C26.4209488,0.659915094 26.0409732,0.278877358 25.5714366,0.278877358 Z" id="Fill-9" fill="#FEFEFE" mask="url(#mask-28)"></path>
                    </g>
                </g>
            </g>
        </g>
    </g>
</svg>