<svg xmlns="http://www.w3.org/2000/svg" xmlns:xlink="http://www.w3.org/1999/xlink" width="259" height="41" viewBox="0 0 259 41">
    <defs>
        <path id="a" d="M0 32.522h249.719V0H0z"/>
    </defs>
    <g fill="none" fill-rule="evenodd" transform="translate(3 4)">
        <path fill="#008C96" d="M59.144 8.721c2.623 0 4.824-2.285 5.379-3.59H38.796c-1.705 0-3.281.084-4.698.94l.79.358v.002c2.61 2.055 3.158 4.741 3.158 7.647 0 2.828-1.19 5.448-3.182 7.483 1.155.587 3.701.541 3.701.541h6.868c2.747 0 5.064-2.284 5.614-4.895H41.09v-2.285h11.314c2.619 0 4.815-1.305 5.375-3.59H46.963V8.721h12.181zM20.811 20.064c3.373 3.298 8.863 3.297 12.238 0 1.624-1.59 2.52-3.667 2.52-5.91 0-2.245-.896-4.472-2.52-5.911l-.553-.573-3.997-3.937c-1.89-1.67-4.667-1.866-6.763-.588l7.51 7.34-1.717 1.757-8.513-8.32c-1.726-1.687-4.37-1.945-6.378-.769l7.5 7.332-1.717 1.757-8.511-8.32c-1.732-1.692-4.385-1.947-6.392-.76l17.293 16.902zM38.781 2.52h29.07v.579c0 4.018-3.341 7.344-7.194 7.9-.503 3.479-3.63 6.238-7.107 6.743-.56 4.09-4.079 7.253-8.322 7.253l-6.458-.005a11.526 11.526 0 0 1-5.95-1.654 11.262 11.262 0 0 1-5.891 1.655c-2.834 0-5.667-1.049-7.826-3.157L0 3.17l.805-.979c2.717-2.657 6.97-2.843 9.966-.66 2.692-1.963 6.387-1.926 9.085.026 3.157-2.34 7.686-2.017 10.565.794l1.763 1.916c1.922-1.36 4.203-1.747 6.597-1.747zM91.716 2.083h4.781v23.06h-3.726V12.485c0-2.845.176-5.166.176-5.166h-.14s-.67 1.97-1.724 4.254L87.5 19.411h-3.306l-3.585-7.838c-1.055-2.285-1.723-4.254-1.723-4.254h-.14s.178 2.321.178 5.166v12.658h-3.728V2.083h4.78l5.836 13.463h.071l5.834-13.463z"/>
        <mask id="b" fill="#fff">
            <use xlink:href="#a"/>
        </mask>
        <path fill="#008C96" d="M101.7 25.143h3.585V7.848H101.7v17.295zm3.726-22.393c0 1.865-.07 1.933-1.933 1.933s-1.934-.068-1.934-1.933c0-1.861.07-1.933 1.934-1.933 1.863 0 1.933.072 1.933 1.933zM119.944 15.23c0-3.763-.95-4.85-3.376-4.85s-3.373 1.087-3.373 4.85h6.749zm3.55 2.884h-10.3c0 3.16.948 4.393 3.795 4.393 1.829 0 3.2-.106 5.204-.423l.386 2.706c-1.863.42-3.9.668-5.59.668-5.201 0-7.557-2.04-7.557-8.963 0-6.643 2.214-8.962 7.031-8.962 4.816 0 7.03 2.32 7.03 8.962v1.619zM132.177 20.114c0 1.652.386 2.32 2.107 2.32.88 0 1.619-.106 2.599-.282l.32 2.532c-1.338.458-2.602.6-3.971.6-2.955 0-4.64-1.198-4.64-4.502v-9.911h-2.638V7.848h2.637V3.349l3.586-.528v5.027h5.376l-.42 3.023h-4.956v9.243zM150.595 15.23c0-3.763-.948-4.85-3.375-4.85-2.425 0-3.373 1.087-3.373 4.85h6.748zm3.55 2.884h-10.298c0 3.16.948 4.393 3.793 4.393 1.828 0 3.2-.106 5.205-.423l.386 2.706c-1.863.42-3.903.668-5.591.668-5.2 0-7.555-2.04-7.555-8.963 0-6.643 2.214-8.962 7.029-8.962 4.815 0 7.03 2.32 7.03 8.962v1.619zM166.588 11.117c-2.04 0-3.515.35-4.851.984v13.042h-3.585V7.848h2.813l.456 1.72c1.054-1.05 3.021-2.035 5.167-2.035v3.584zM184.868 5.458h-10.827v6.431h9.985v3.376h-9.985v6.5h11.037v3.378h-14.762V2.083h14.552zM203.007 12.697v12.446h-3.589v-11.6c0-2.04-.563-2.74-2.602-2.74-1.438 0-2.95.455-4.216 1.157v13.183h-3.584V7.848h2.81l.423 1.581c1.548-1.126 3.234-1.896 5.414-1.896 4.288 0 5.344 2.776 5.344 5.164M217.311 13.33c0-2.6-.913-3.128-3.48-3.128s-3.48.528-3.48 3.129c0 2.6.913 3.129 3.48 3.129s3.48-.529 3.48-3.13zm-4.218 11.282c-.914-.067-1.863-.244-2.247-.382-.706.912-.987 1.754-.987 3.126 0 1.793 1.23 2.392 4.534 2.392 3.305 0 4.538-.599 4.538-2.392 0-2.003-.916-2.32-2.745-2.46l-3.093-.284zm-1.758-4.567c-.21 1.16.212 1.44 2.144 1.616l3.584.352c3.694.35 5.273 1.934 5.273 5.343 0 3.831-2.425 5.167-7.943 5.167-5.52 0-7.942-1.336-7.942-5.167 0-1.546.77-2.92 1.79-3.728l.776-.596c-.668-.597-1.02-1.581-.458-3.057l.668-1.792c-1.23-.741-2.285-1.935-2.285-4.852 0-4.78 2.671-5.798 6.89-5.798 1.548 0 3.055.104 4.393.84l4.395-.668.422 2.639h-2.988c.455.736.668 1.898.668 2.987 0 4.782-2.674 5.8-6.89 5.8-.844 0-1.863-.107-2.32-.213l-.177 1.127zM235.834 15.23c0-3.763-.949-4.85-3.374-4.85-2.423 0-3.375 1.087-3.375 4.85h6.75zm3.551 2.884h-10.3c0 3.16.952 4.393 3.8 4.393 1.826 0 3.195-.106 5.198-.423l.389 2.706c-1.863.42-3.902.668-5.588.668-5.201 0-7.557-2.04-7.557-8.963 0-6.643 2.213-8.962 7.03-8.962 4.815 0 7.028 2.32 7.028 8.962v1.619zM246.979 20.816c0 1.268.314 1.547 1.302 1.547.245 0 .596-.034 1.087-.138l.35 2.53c-.736.315-1.79.529-2.773.529-2.463 0-3.553-1.234-3.553-3.866V.958l3.587-.527v20.385z" mask="url(#b)"/>
    </g>
</svg>
