<?xml version="1.0" encoding="UTF-8"?>
<svg width="168px" height="168px" viewBox="0 0 168 168" version="1.1" xmlns="http://www.w3.org/2000/svg" xmlns:xlink="http://www.w3.org/1999/xlink">
    <!-- Generator: Sketch 48.2 (47327) - http://www.bohemiancoding.com/sketch -->
    <title>user-placeholder-icon</title>
    <desc>Created with Sketch.</desc>
    <defs></defs>
    <g id="Symbols" stroke="none" stroke-width="1" fill="none" fill-rule="evenodd">
        <g id="user-placeholder-icon">
            <g id="Group-17" fill="#A6DADD">
                <circle id="Oval-2-Copy-2" cx="84" cy="84" r="84"></circle>
            </g>
            <g id="Group-19" transform="translate(38.000000, 38.000000)">
                <ellipse id="Oval-3" fill="#FFFFFF" cx="46.5" cy="46.0810811" rx="46.5" ry="46.0810811"></ellipse>
                <path d="M42.5719546,62.31665 L34.4750796,54.5207445 L31.6560756,54.5207445 C27.1965851,54.4733123 23.5306381,57.9504564 23.4350155,62.31665 L23.4350155,80.012504 C23.4350155,81.6920899 16.7802912,67.678315 20.3303855,83.0530289 C23.8804799,98.4277427 71.6437096,91.6849481 71.6437096,83.0530289 C71.6437096,74.4211096 68.5390795,81.6920899 68.5390795,80.012504 L68.5390795,62.31665 C68.4782288,57.9261324 64.8011051,54.4125019 60.3180194,54.4599341 L57.4865969,54.4599341 L49.3897219,62.31665 C47.4934139,64.1288027 44.4682626,64.1288027 42.5719546,62.31665 Z" id="Imported-Layers-3-path" fill="#A6DADD"></path>
                <ellipse id="Oval-3" stroke="#228288" stroke-width="6" cx="46.5" cy="46.0810811" rx="46.5" ry="46.0810811"></ellipse>
                <path d="M42.8472854,65.0181799 L34.7504104,57.2222745 L31.9314064,57.2222745 C27.4719159,57.1748423 23.8059689,60.6519864 23.7103463,65.0181799 L23.7103463,82.714034 C23.7103463,84.3936199 22.3207139,85.7545588 20.6057163,85.7545588 C18.8907187,85.7545588 17.5010863,84.3936199 17.5010863,82.714034 L17.5010863,65.0181799 C17.5967089,57.2915984 24.0419207,51.0877118 31.9314064,51.129063 L36.0295179,51.129063 C36.842931,51.1302791 37.6228141,51.4452775 38.202759,52.004734 L46.2623782,59.7641532 L54.3219976,52.004734 C54.9007007,51.4452775 55.6818256,51.1302791 56.4952387,51.129063 L60.5933502,51.129063 C68.4828359,51.0877118 74.9280477,57.2915984 75.0236703,65.0181799 L75.0236703,82.714034 C75.0236703,84.3936199 73.6340379,85.7545588 71.9190404,85.7545588 C70.2040427,85.7545588 68.8144103,84.3936199 68.8144103,82.714034 L68.8144103,65.0181799 C68.7535595,60.6276623 65.0764359,57.1140319 60.5933502,57.161464 L57.7619277,57.161464 L49.6650527,65.0181799 C47.7687447,66.8303327 44.7435933,66.8303327 42.8472854,65.0181799 Z" id="Imported-Layers-3-path" fill="#228288"></path>
                <g id="Fallschildern" transform="translate(29.590909, 17.594595)">
                    <ellipse id="Oval-4" fill="#A6DADD" cx="16.4464837" cy="14.6068332" rx="10.7197256" ry="10.6231515"></ellipse>
                    <g id="li-communication_off" fill="#228288" fill-rule="nonzero">
                        <path d="M16.4591125,31.5873162 C25.2924057,31.70164 32.547305,24.7814057 32.6640391,16.1305047 C32.7807732,7.47960362 25.7146353,0.374505367 16.8813422,0.260181637 C16.8117984,0.2589655 16.7410129,0.2589655 16.6714691,0.2589655 C7.9002687,0.211533326 0.744717503,7.12690274 0.676415643,15.7169932 C0.559681562,24.3678943 7.62581936,31.4729925 16.4591125,31.5873162 Z M16.8850677,25.5050506 C11.4817698,25.6193743 7.00737709,21.4222339 6.89064299,16.1305047 C6.7739089,10.8387754 11.0595402,6.45677103 16.4628381,6.3424473 C16.5323818,6.34123116 16.6019256,6.34001488 16.6714691,6.34001488 C22.0139165,6.29258271 26.3889611,10.4848583 26.4572628,15.7169932 C26.5739969,21.0087226 22.2883657,25.3907268 16.8850677,25.5050506 Z" id="Imported-Layers-3"></path>
                    </g>
                </g>
            </g>
        </g>
    </g>
</svg>